<svg width="42" height="41" viewBox="0 0 42 41" fill="none" xmlns="http://www.w3.org/2000/svg">
<path d="M21.5 38C31.165 38 39 30.165 39 20.5C39 10.835 31.165 3 21.5 3C11.835 3 4 10.835 4 20.5C4 30.165 11.835 38 21.5 38Z" stroke="white" stroke-opacity="0.8" stroke-width="5"/>
<path d="M20.2 8.5C30.3509 11.374 33 19.7 33 19.7C30.8174 9.40433 20.2 8.5 20.2 8.5Z" fill="white"/>
<path d="M37.7999 19.6998C37.7999 29.4201 29.92 37.2999 20.1999 37.2999C10.4797 37.2999 2.59985 29.4201 2.59985 19.6998C2.59985 9.97965 10.4797 2.09985 20.1999 2.09985C29.92 2.09985 37.7999 9.97965 37.7999 19.6998Z" stroke="url(#paint0_linear_3548_28609)" stroke-width="0.5"/>
<path d="M37.8 21.3C37.8 31.0201 30.2783 38.9 21 38.9C11.7216 38.9 4.19995 31.0201 4.19995 21.3C4.19995 11.5797 11.7216 3.69995 21 3.69995C30.2783 3.69995 37.8 11.5797 37.8 21.3Z" stroke="url(#paint1_linear_3548_28609)" stroke-width="0.5"/>
<path d="M39.4 19.6999C39.4 29.42 31.5201 37.2999 21.8 37.2999C12.0797 37.2999 4.19995 29.42 4.19995 19.6999C4.19995 9.97965 12.0797 2.09985 21.8 2.09985C31.5201 2.09985 39.4 9.97965 39.4 19.6999Z" stroke="url(#paint2_linear_3548_28609)" stroke-width="0.5"/>
<path d="M14 25.2886V16H17.705V17.4716H15.6361V19.8612H17.4481V21.3328H15.6361V23.817H17.705V25.2886H14ZM22.0283 25.2886L21.7173 23.2499H20.1217L19.8107 25.2886H18.2016L19.7295 16H22.1364L23.6779 25.2886H22.0283ZM20.96 17.6741H20.8789L20.2839 21.8189H21.555L20.96 17.6741ZM24.8109 25.2886V17.4986H23.3641V16H27.8939V17.4986H26.447V25.2886H24.8109Z" fill="white"/>
<path d="M21.3 36.3001C29.8605 36.3001 36.8 29.3605 36.8 20.8C36.8 12.2396 29.8605 5.30005 21.3 5.30005C12.7396 5.30005 5.80005 12.2396 5.80005 20.8C5.80005 29.3605 12.7396 36.3001 21.3 36.3001Z" stroke="black" stroke-width="0.5"/>
<path d="M21 40.5C32.0457 40.5 41 31.5457 41 20.5C41 9.45431 32.0457 0.5 21 0.5C9.9543 0.5 1 9.45431 1 20.5C1 31.5457 9.9543 40.5 21 40.5Z" stroke="black" stroke-width="0.5"/>
<defs>
<linearGradient id="paint0_linear_3548_28609" x1="20.1999" y1="1.83717" x2="20.1999" y2="37.5625" gradientUnits="userSpaceOnUse">
<stop stop-color="#E7512D"/>
<stop offset="1" stop-color="#FCE727"/>
</linearGradient>
<linearGradient id="paint1_linear_3548_28609" x1="21" y1="3.43726" x2="21" y2="39.1626" gradientUnits="userSpaceOnUse">
<stop stop-color="#219653"/>
<stop offset="1" stop-color="#5E74C2"/>
</linearGradient>
<linearGradient id="paint2_linear_3548_28609" x1="21.8" y1="1.83717" x2="21.8" y2="37.5625" gradientUnits="userSpaceOnUse">
<stop stop-color="#FCE727"/>
<stop offset="1" stop-color="#B720CF" stop-opacity="0.18"/>
</linearGradient>
</defs>
</svg>
