<svg width="21" height="25" viewBox="0 0 21 25" fill="none" xmlns="http://www.w3.org/2000/svg">
<path d="M2.51833 9.31851V22.5894C2.51833 23.7346 3.44728 24.666 4.58901 24.666H15.3956C16.5373 24.666 17.4663 23.7346 17.4663 22.5897L17.4665 19.5735C19.4181 19.4502 20.9692 17.8278 20.9692 15.8456V13.8875C20.9692 11.9053 19.4179 10.2829 17.4665 10.1596V9.28969C17.969 9.18254 18.4052 8.94921 18.7466 8.59448C19.2271 8.09559 19.4759 7.40271 19.4474 6.64327C19.4052 5.52431 18.665 4.55518 17.6168 4.20761C17.6166 4.19212 17.6161 4.17663 17.6155 4.16094C17.5498 2.41984 16.0786 1.06253 14.3388 1.12216C13.4304 1.15648 12.6042 1.56748 12.0304 2.261C11.1912 1.76545 10.0886 1.78219 9.2622 2.29846C8.61703 1.18244 7.37608 0.544177 6.06442 0.685447C4.72575 0.830677 3.59902 1.80881 3.26044 3.11945C3.13509 3.60453 3.12044 4.08959 3.21608 4.56698C2.91013 4.52973 2.60208 4.55463 2.29511 4.64001C1.32996 4.90787 0.626231 5.75603 0.543783 6.75006C0.48728 7.43124 0.709733 8.08182 1.16994 8.58218C1.52778 8.97121 2.00457 9.22663 2.51833 9.31851ZM20.3692 13.8876V15.8458C20.3692 17.4971 19.087 18.8517 17.4664 18.9737V10.76C19.087 10.8818 20.3692 12.2363 20.3692 13.8876ZM16.8662 22.5899C16.8662 23.404 16.2064 24.0663 15.3955 24.0663H4.5889C3.77798 24.0663 3.11818 23.404 3.11818 22.5899V9.35864H5.23723C5.40193 9.35864 5.53627 9.49257 5.53627 9.65747V11.2527C5.53627 11.8556 5.80895 12.4041 6.23336 12.7661V20.908C6.23336 21.0738 6.36771 21.2081 6.53345 21.2081C6.69919 21.2081 6.83354 21.0738 6.83354 20.908V13.1095C6.9635 13.1541 7.09889 13.1859 7.23952 13.1993C7.29978 13.2049 7.35984 13.2079 7.41969 13.2079C7.88908 13.2079 8.34526 13.034 8.69348 12.7173C9.08628 12.3601 9.31144 11.851 9.31144 11.3205V9.65703C9.31144 9.49234 9.44558 9.3582 9.61048 9.3582H16.8186C16.835 9.3582 16.8502 9.35631 16.8663 9.3561L16.8662 22.5899ZM1.14168 6.80002C1.20258 6.06673 1.74293 5.41657 2.45587 5.21841C2.617 5.17362 2.77835 5.15123 2.93948 5.15123C3.14205 5.15123 3.34378 5.1866 3.54281 5.25733C3.65289 5.29668 3.77552 5.26843 3.85713 5.18534C3.93895 5.10226 3.96532 4.97942 3.92472 4.87019C3.73011 4.34723 3.70207 3.8086 3.84143 3.26972C4.11809 2.19934 5.03738 1.40074 6.12935 1.28208C7.30231 1.15505 8.40703 1.79206 8.87911 2.86792C8.91698 2.95435 8.99357 3.01818 9.08545 3.03952C9.17731 3.06066 9.2742 3.03785 9.34661 2.97737C9.71931 2.66451 10.1922 2.49228 10.6784 2.49228C11.1277 2.49228 11.5568 2.63605 11.9195 2.90768C11.985 2.95665 12.0677 2.97632 12.1483 2.96355C12.2288 2.95016 12.3006 2.90454 12.3468 2.83695C12.8112 2.15915 13.5453 1.75275 14.3611 1.722C15.7726 1.66571 16.9625 2.77336 17.0156 4.18338C17.0186 4.26228 17.0167 4.34033 17.0125 4.41776C17.0049 4.56299 17.1027 4.69294 17.2441 4.7258C18.153 4.93674 18.8122 5.73446 18.8473 6.66614C18.8697 7.26106 18.6806 7.79828 18.3141 8.17848C17.9488 8.55809 17.4314 8.75856 16.8183 8.75856L9.61067 8.75877C9.11492 8.75877 8.71167 9.16203 8.71167 9.65755V11.321C8.71167 11.6831 8.55807 12.0302 8.29 12.2738C8.01837 12.521 7.66599 12.6377 7.29661 12.6024C6.64619 12.5404 6.13666 11.9475 6.13666 11.2526L6.13645 9.6576C6.13645 9.16205 5.7332 8.75881 5.23745 8.75881H2.93888C2.43622 8.75881 1.9524 8.54662 1.61152 8.17643C1.26623 7.80101 1.0992 7.31207 1.14168 6.80002Z" fill="black"/>
<path d="M9.99219 12.1236C9.82645 12.1236 9.6921 12.2579 9.6921 12.4237V20.9084C9.6921 21.0742 9.82645 21.2085 9.99219 21.2085C10.1579 21.2085 10.2923 21.0742 10.2923 20.9084V12.4237C10.2923 12.2579 10.1579 12.1236 9.99219 12.1236Z" fill="black"/>
<path d="M13.4514 12.1236C13.2856 12.1236 13.1513 12.2579 13.1513 12.4237V20.9084C13.1513 21.0742 13.2856 21.2085 13.4514 21.2085C13.6171 21.2085 13.7515 21.0742 13.7515 20.9084V12.4237C13.7515 12.2579 13.6171 12.1236 13.4514 12.1236Z" fill="black"/>
</svg>
