<svg width="11" height="25" viewBox="0 0 11 25" fill="none" xmlns="http://www.w3.org/2000/svg">
<path d="M7.87582 1.91721L7.7329 0.9232C7.71176 0.77567 7.58516 0.666016 7.43595 0.666016H3.61189C3.46268 0.666016 3.33629 0.77567 3.31495 0.9232L3.17202 1.91742C3.1287 2.21897 3.21827 2.52363 3.41769 2.75383C3.52734 2.88022 3.66378 2.97711 3.81508 3.03863C3.51039 3.9479 2.71666 6.56929 2.82632 8.90949C1.34851 10.2925 0.503906 12.2349 0.503906 14.2628V22.7201C0.503906 23.793 1.37695 24.666 2.45004 24.666H8.59785C9.67093 24.666 10.5438 23.793 10.5438 22.7199V14.2626C10.5438 12.2349 9.69916 10.2923 8.22135 8.90927C8.33101 6.56929 7.53725 3.9479 7.23259 3.03842C7.38389 2.9769 7.52054 2.88001 7.62998 2.75362C7.82983 2.52363 7.91918 2.21895 7.87586 1.91721H7.87582ZM9.94393 20.7871H1.10364V14.8777H2.87775C2.97025 14.8777 3.05772 14.835 3.11464 14.7617C3.70097 14.0078 4.57906 13.5752 5.52367 13.5752C6.46829 13.5752 7.34632 14.0078 7.93271 14.7619C7.98963 14.835 8.07689 14.8779 8.1696 14.8779H9.94371L9.94393 20.7871ZM8.59775 24.066H2.44993C1.70771 24.066 1.10396 23.4621 1.10396 22.7198V21.387H9.94425V22.7198C9.94404 23.462 9.34013 24.066 8.59785 24.066H8.59775ZM7.17688 2.36115C7.09025 2.46097 6.96971 2.51621 6.83746 2.51621C6.73932 2.51621 6.64724 2.56435 6.59116 2.64491C6.53528 2.72547 6.5221 2.82822 6.556 2.9205C6.56835 2.95378 7.78771 6.28734 7.61489 9.01582C7.60924 9.10726 7.64544 9.19641 7.71366 9.25772C9.13099 10.5323 9.94377 12.3567 9.94377 14.2629V14.2777L8.31301 14.2775C7.61386 13.4478 6.60565 12.9749 5.524 12.9749C4.44235 12.9749 3.43408 13.4478 2.73498 14.2773H1.10401V14.2624C1.10401 12.3565 1.91679 10.5321 3.33412 9.2573C3.40234 9.19599 3.43875 9.10663 3.4329 9.0154C3.26004 6.28681 4.47941 2.9533 4.49178 2.92008C4.52568 2.828 4.5125 2.72505 4.45662 2.64449C4.40054 2.56392 4.30847 2.51579 4.21032 2.51579C4.07807 2.51579 3.95753 2.46076 3.8709 2.36073C3.78427 2.2607 3.74702 2.13347 3.76564 2.00247L3.87195 1.26609H7.176L7.28209 2.00269C7.30093 2.13389 7.26347 2.26113 7.17705 2.36115L7.17688 2.36115Z" fill="black"/>
</svg>
