<svg width="8" height="25" viewBox="0 0 8 25" fill="none" xmlns="http://www.w3.org/2000/svg">
<path d="M6.63171 23.0876C5.64192 22.8034 4.75299 22.4382 4.75299 21.1105V15.2587C4.75299 13.912 5.18019 13.1547 5.59399 12.4226C5.72172 12.1963 5.85379 11.9621 5.96973 11.7168L5.96746 11.7156C5.99763 11.6658 6.02884 11.6205 6.0584 11.5678C7.66987 8.66643 7.43548 2.48212 6.39301 0.805936C6.33866 0.719132 6.24338 0.666016 6.14107 0.666016H1.58712C1.48461 0.666016 1.38954 0.719132 1.33559 0.805936C0.292901 2.4817 0.0589335 8.66675 1.67062 11.5678C1.69997 11.6205 1.73138 11.6656 1.76156 11.7156L1.75887 11.7168C1.87482 11.9621 2.00689 12.1963 2.13462 12.4226C2.54798 13.1547 2.9752 13.9119 2.9752 15.2587V21.1105C2.9752 22.4382 2.08626 22.8036 1.09648 23.0876C0.673609 23.2089 0.308594 23.3137 0.308594 23.6661C0.308594 24.5883 1.17727 24.666 3.86408 24.666C6.5509 24.666 7.41957 24.5883 7.41957 23.6661C7.41957 23.3137 7.05458 23.209 6.63169 23.0876H6.63171ZM3.08014 12.9533C3.32712 13.0537 3.58732 13.1103 3.86405 13.1103C4.14077 13.1103 4.40098 13.0537 4.64796 12.9533C4.51672 13.2408 4.39974 13.5586 4.31231 13.9224C4.02193 14.0147 3.7057 14.0147 3.41512 13.9224C3.32831 13.5582 3.21133 13.2403 3.08009 12.9533H3.08014ZM1.75945 1.2586H5.96806C6.86917 3.00791 6.97853 8.68926 5.53961 11.2797C5.08326 12.1013 4.51988 12.5177 3.86406 12.5177C3.20867 12.5177 2.64486 12.1015 2.18852 11.2797C0.749421 8.69005 0.858521 3.00833 1.75945 1.2586H1.75945ZM3.86405 24.0733C1.6193 24.0733 1.03088 23.9805 0.921785 23.7623C1.01004 23.7288 1.14955 23.6885 1.2595 23.6571C2.06637 23.4254 3.56769 22.9946 3.56769 21.1104V15.2585C3.56769 15.0072 3.54991 14.7801 3.52532 14.562C3.63652 14.5804 3.74915 14.592 3.86406 14.592C3.97897 14.592 4.09162 14.5804 4.20281 14.562C4.17821 14.7801 4.16044 15.0074 4.16044 15.2585V21.1104C4.16044 22.9948 5.66176 23.4254 6.46821 23.6571C6.57837 23.6885 6.71809 23.7288 6.80633 23.7623C6.69721 23.9805 6.10877 24.0733 3.86407 24.0733H3.86405Z" fill="black"/>
</svg>
