<svg width="20" height="25" viewBox="0 0 20 25" fill="none" xmlns="http://www.w3.org/2000/svg">
<path d="M18.6714 0.666107H1.11427C0.862943 0.668409 0.644262 0.814683 0.542765 1.04739C0.439805 1.28407 0.485218 1.55883 0.658277 1.74779L9.59835 11.5123V24.0658H7.35524C7.18929 24.0658 7.05516 24.2 7.05516 24.3659C7.05516 24.5319 7.18929 24.666 7.35524 24.666H12.5166C12.6825 24.666 12.8167 24.5319 12.8167 24.3659C12.8167 24.2 12.6825 24.0658 12.5166 24.0658H10.1985V11.5123L19.1391 1.74832C19.3122 1.55936 19.3576 1.28459 19.2546 1.04792C19.1532 0.814592 18.9342 0.668619 18.6714 0.666107ZM9.89845 10.9519L3.84911 4.34489C4.38316 4.45748 5.02791 4.53846 5.8526 4.53846C7.61565 4.53846 8.58267 4.18062 9.51745 3.8341C10.4432 3.49111 11.3177 3.16761 12.9726 3.16761C14.6239 3.16761 15.4978 3.48883 16.419 3.83056L9.89845 10.9519ZM18.6966 1.34272L16.8567 3.35252C16.7845 3.32616 16.7121 3.29979 16.6403 3.273C15.7055 2.92645 14.7385 2.56778 12.9721 2.56778C11.2098 2.56778 10.2432 2.92562 9.30867 3.27198C8.38247 3.61497 7.50775 3.9389 5.85222 3.9389C4.55792 3.9389 3.75729 3.7401 3.09219 3.51891L1.0998 1.34298C1.08118 1.32268 1.08683 1.29924 1.09227 1.2871C1.10127 1.2668 1.11173 1.26638 1.12491 1.26638H18.6772C18.6841 1.26638 18.695 1.26659 18.704 1.2871C18.7094 1.29903 18.7156 1.32242 18.6966 1.34272Z" fill="black"/>
</svg>
