<svg width="26" height="25" viewBox="0 0 26 25" fill="none" xmlns="http://www.w3.org/2000/svg">
<path d="M6.96246 16.1499C7.84732 20.0577 9.13751 22.8965 10.7964 24.5554C10.8702 24.6292 10.9438 24.666 11.0546 24.666H19.5338C19.6444 24.666 19.7182 24.6292 19.792 24.5554C22.1515 22.196 23.7736 17.4771 24.5476 10.62C25.1376 5.5324 25.027 1.07165 25.027 1.03478C25.027 0.850399 24.8426 0.666016 24.6582 0.666016L5.93017 0.666273C5.74579 0.666273 5.5614 0.813626 5.5614 1.03504V2.87835C4.86088 2.69397 3.16523 2.39901 2.02211 3.21009C1.32159 3.7262 0.953125 4.53727 0.953125 5.68013C0.990156 9.91961 4.05009 13.8644 6.96239 16.1501L6.96246 16.1499ZM19.3864 23.9287H11.2389C7.88406 20.4265 6.81507 12.3158 6.44627 6.74905H6.48304H24.1788C23.8103 12.279 22.7411 20.4264 19.3862 23.9287H19.3864ZM6.29887 1.40345H24.3265C24.3265 2.10397 24.3265 3.79962 24.2159 6.01172H6.48322H6.40942C6.2991 3.79988 6.2991 2.10397 6.2991 1.40345H6.29887ZM2.46465 3.79988C3.49691 3.06262 5.26642 3.54169 5.56135 3.65253C5.59812 5.42204 5.7087 7.92908 6.04069 10.6202C6.22508 12.2054 6.44623 13.6434 6.70415 15.0074C3.60745 12.3162 1.72708 8.814 1.72708 5.68024C1.72734 4.79512 1.98527 4.16839 2.4646 3.79993L2.46465 3.79988Z" fill="black"/>
</svg>
