<svg width="25" height="25" viewBox="0 0 25 25" fill="none" xmlns="http://www.w3.org/2000/svg">
<path d="M19.6294 13.2062L24.8232 1.07875C24.8623 0.987193 24.8528 0.881993 24.798 0.799115C24.7433 0.716031 24.6502 0.666016 24.5506 0.666016H0.847087C0.747468 0.666016 0.654464 0.716032 0.599692 0.799115C0.54492 0.882406 0.535417 0.987606 0.57489 1.07875L5.76665 13.1956C5.77368 13.2134 5.83961 13.3692 5.96362 13.6137C6.4921 14.7928 7.36552 16.7926 7.36552 17.5131C7.36552 18.5549 6.87838 19.3635 6.40759 20.1458C5.98596 20.8456 5.58791 21.507 5.58791 22.2677C5.58791 23.7469 6.49605 24.666 7.9581 24.666H17.4395C18.9018 24.666 19.8099 23.7469 19.8099 22.2677C19.8099 21.5071 19.4117 20.8431 18.9905 20.14C18.5197 19.354 18.0323 18.5413 18.0323 17.4992C18.0323 16.8007 18.859 14.8918 19.3865 13.7129C19.5421 13.4151 19.6218 13.225 19.6294 13.2062ZM12.6988 17.7436C7.87182 17.7436 5.93109 12.0754 5.93109 12.0754C7.60664 14.4127 9.79165 16.2482 12.6988 16.2482C15.6097 16.2482 17.7965 14.408 19.4728 12.0663C19.4728 12.0663 17.5257 17.7436 12.6988 17.7436ZM24.1013 1.25854L22.5597 4.85783C22.5384 4.8816 22.518 4.90702 22.5045 4.93823L22.4456 5.07567C20.6453 9.28881 17.9243 15.6555 12.6986 15.6555C7.47287 15.6555 4.75209 9.28887 2.95157 5.07567L2.89287 4.93823C2.88047 4.90888 2.86063 4.88511 2.84079 4.86258L1.29646 1.25853L24.1013 1.25854ZM18.4823 20.4447C18.8765 21.1027 19.2171 21.6711 19.2171 22.2676C19.2171 23.8383 18.1031 24.0729 17.4394 24.0729H7.95801C7.29394 24.0729 6.18014 23.8383 6.18014 22.2673C6.18014 21.6709 6.52054 21.1056 6.9149 20.4511C7.40369 19.6392 7.9578 18.7189 7.9578 17.5127C7.9578 17.1465 7.80217 16.5806 7.56346 15.9178C9.01704 17.4989 10.7877 18.3355 12.6986 18.3355C14.6063 18.3355 16.3733 17.5032 17.8257 15.9299C17.5917 16.5813 17.4396 17.1375 17.4396 17.4988C17.4396 18.705 17.9931 19.6291 18.4823 20.4447Z" fill="black"/>
</svg>
