<svg width="21" height="25" viewBox="0 0 21 25" fill="none" xmlns="http://www.w3.org/2000/svg">
<path d="M17.825 5.33566C17.121 5.33566 16.8243 5.23807 16.709 5.18001L16.9643 3.38412C16.9763 3.30039 16.9511 3.21564 16.8961 3.15167C16.84 3.0877 16.7594 3.05083 16.675 3.05083H10.4932C9.11352 3.05083 7.73283 2.33636 6.51498 1.70623C5.48128 1.17124 4.50563 0.666016 3.65812 0.666016C1.81602 0.666016 0.730953 1.85639 0.685736 1.90734C0.625638 1.97416 0.602002 2.06645 0.6183 2.15528C0.634394 2.2441 0.692458 2.32111 0.77252 2.36288C0.781077 2.36756 1.62535 2.8284 1.90218 4.71614L4.35813 21.4671L4.16602 23.7668C4.154 23.9075 4.24527 24.0369 4.38176 24.0734C4.47283 24.0974 6.64052 24.666 9.37351 24.666C12.1063 24.666 14.2746 24.0954 14.3655 24.0707C14.5024 24.0343 14.593 23.9051 14.581 23.7637L14.3889 21.5087L14.6016 20.0135C14.7411 19.5777 16.5455 18.9641 17.7524 18.555C19.9038 17.8246 20.1799 16.2335 20.1799 14.9284V7.7181C20.1799 6.27082 19.2557 5.3359 17.8252 5.3359L17.825 5.33566ZM15.1354 16.2537L16.2759 8.22657C16.4719 7.54429 17.1224 7.43487 17.5146 7.43487C17.7975 7.43487 18.1351 7.56301 18.1351 8.174V14.2343C18.1351 15.4105 17.9552 16.0907 16.972 16.5448C16.5126 16.7575 15.6405 16.7854 15.278 16.5159C15.1837 16.4456 15.1389 16.3619 15.1354 16.2535L15.1354 16.2537ZM2.47966 4.63105C2.26289 3.15201 1.71424 2.41512 1.3573 2.08096C1.73317 1.77456 2.53932 1.24994 3.65777 1.24994C4.36306 1.24994 5.27764 1.7234 6.24614 2.2246C7.52372 2.88591 8.97121 3.63501 10.4931 3.63501H16.3385L13.8402 21.2162C13.3089 21.3511 11.5776 21.7431 9.37348 21.7431C7.1771 21.7431 5.44969 21.354 4.91224 21.2177L2.47966 4.63105ZM9.37342 24.0815C7.22878 24.0815 5.40135 23.7105 4.76877 23.5655L4.91484 21.821C5.60223 21.9878 7.26137 22.3274 9.37341 22.3274C11.4822 22.3274 13.1395 21.9888 13.8292 21.8222L13.9779 23.5639C13.3457 23.7091 11.5212 24.0815 9.37344 24.0815L9.37342 24.0815ZM19.5957 14.9284C19.5957 16.1665 19.3494 17.3958 17.5643 18.0012C16.2348 18.4525 15.3025 18.7934 14.7258 19.1344L15.0236 17.039C15.3111 17.2136 15.6994 17.2964 16.0973 17.2964C16.5035 17.2964 16.9138 17.2157 17.217 17.0755C18.6038 16.4352 18.7195 15.3214 18.7195 14.2349V8.17459C18.7195 7.19774 18.0702 6.85117 17.5146 6.85117C17.3078 6.85117 16.8472 6.88397 16.433 7.12274L16.6245 5.77408C16.8839 5.86046 17.2638 5.92036 17.8247 5.92036C19.1302 5.92036 19.5951 6.84917 19.5951 7.71827L19.5953 14.9286L19.5957 14.9284Z" fill="black"/>
</svg>
