<svg width="15" height="25" viewBox="0 0 15 25" fill="none" xmlns="http://www.w3.org/2000/svg">
<path d="M11.5477 22.3547C10.7042 22.1192 9.74753 21.852 9.74753 21.246V19.8631C9.74753 18.5244 10.3263 17.558 11.2026 16.0945C11.6337 15.3742 12.1223 14.5583 12.6458 13.5284L12.623 13.5168C12.7018 13.3727 12.7783 13.2258 12.8529 13.0755C13.852 11.3144 14.4094 8.94336 14.4094 6.12421C14.4094 2.54988 14.0801 0.713635 13.4095 0.666016L1.23331 0.667669C0.588439 0.729674 0.261719 2.57137 0.261719 6.14121C0.261719 8.95269 0.817909 11.3177 1.8151 13.0756C1.98541 13.4179 2.16708 13.7434 2.35786 14.053C2.78444 14.8516 3.18621 15.519 3.54833 16.1186C4.32669 17.408 4.8932 18.3108 5.00706 19.4234C4.99549 19.4932 5.00706 21.2456 5.00706 21.2456C5.00706 21.851 4.03939 22.1182 3.18579 22.3545C2.34336 22.587 1.61606 22.7883 1.61606 23.38C1.61606 24.3176 3.16923 24.666 7.34621 24.666C11.5425 24.666 13.1028 24.3176 13.1028 23.38C13.1022 22.7891 12.3819 22.5876 11.5477 22.3543L11.5477 22.3547ZM9.29197 18.7115C8.95984 18.4191 8.38547 18.1477 7.41864 18.1477H7.35147H7.31985H7.25268C6.34638 18.1477 5.78607 18.3933 5.44527 18.6591C5.25802 17.9264 4.90871 17.2508 4.46104 16.4887C5.38697 17.2208 6.3776 17.63 7.33575 17.63C8.33982 17.63 9.37897 17.1788 10.3425 16.3768C9.85806 17.2025 9.48189 17.9215 9.29199 18.7115L9.29197 18.7115ZM9.15495 20.8143C9.15495 21.3947 8.5568 21.7032 7.41844 21.7032H7.27893C6.30835 21.7032 5.59925 21.4294 5.59925 21.048C5.59925 20.6667 5.60938 19.5912 5.59925 19.4632C5.69784 18.9858 6.24221 18.7403 7.27338 18.7403H7.41805C8.55668 18.7403 9.15498 19.0366 9.15498 19.6292V20.8143H9.15495ZM4.50897 15.8102C5.3514 16.2576 6.2986 16.4961 7.33532 16.4961C8.37119 16.4961 9.3178 16.2574 10.1594 15.8102C9.3114 16.5805 8.35527 17.0393 7.33532 17.0393C6.31453 17.0395 5.35781 16.5804 4.50897 15.8102ZM1.36786 1.25885L13.3049 1.25802C13.419 1.43287 13.8173 2.315 13.8173 6.12469C13.8173 8.49098 13.1949 11.0373 12.158 13.0749C11.0262 14.8799 9.36683 15.904 7.33577 15.904C5.30286 15.904 3.64281 14.8803 2.51086 13.0756C1.47541 11.042 0.854295 8.50199 0.854295 6.14172C0.854088 2.33135 1.25195 1.43813 1.3681 1.25892L1.36786 1.25885ZM7.34564 24.0737C2.57855 24.0737 2.20781 23.5429 2.20781 23.3803C2.20781 23.2395 3.00331 23.0196 3.34289 22.926C4.14791 22.7032 5.10855 22.4362 5.46035 21.7965C5.80219 22.0604 6.35939 22.2607 7.25204 22.2927L7.31941 22.2958H7.33533H7.35124L7.41841 22.2929C8.36148 22.2592 8.93275 22.0385 9.26883 21.7524C9.59601 22.4239 10.5732 22.698 11.3879 22.9258C11.7236 23.0194 12.5094 23.2393 12.5094 23.3802C12.5094 23.5429 12.1369 24.0736 7.34566 24.0736L7.34564 24.0737Z" fill="black"/>
</svg>
