<svg width="12" height="25" viewBox="0 0 12 25" fill="none" xmlns="http://www.w3.org/2000/svg">
<path d="M9.04472 22.4926C8.00081 22.1437 6.7733 21.7481 6.7733 20.5547V16.7028C6.7733 14.9888 7.7052 13.7296 8.73324 12.2714C10.2182 10.1654 11.8917 7.82145 11.3413 3.51221C11.3407 3.50725 11.351 3.5025 11.3504 3.49712C11.3504 3.49505 11.3554 3.49299 11.3554 3.49092C11.268 2.70844 11.1167 1.85569 10.8802 0.926433C10.8562 0.832602 10.7887 0.765015 10.7054 0.730502C10.6547 0.6902 10.5927 0.666016 10.5243 0.666016H1.23017C1.16403 0.666016 1.10224 0.687923 1.05201 0.725539C0.962522 0.757575 0.887909 0.827227 0.862284 0.926226C0.437974 2.59373 0.281493 4.01092 0.298054 5.22039C0.298674 5.27289 0.30012 5.32477 0.301567 5.37602C0.340009 6.81924 0.629771 7.9568 1.02474 8.83664C1.5741 10.1649 3.47325 12.8971 3.65558 13.0986C4.44325 14.2329 4.99546 15.3206 4.99546 16.7031V20.555C4.99546 21.7466 3.82483 22.1429 2.75341 22.4921C1.92378 22.7623 1.16199 23.0177 1.16199 23.6845C1.16199 24.4035 2.12013 24.5256 2.47669 24.5716C3.15791 24.6594 4.11028 24.666 5.46901 24.666H6.28641C9.10984 24.666 10.6434 24.666 10.6434 23.6847C10.6434 23.0194 9.85534 22.7637 9.04476 22.4928L9.04472 22.4926ZM5.88441 13.5915C4.71854 13.5915 3.37802 11.6359 3.27633 11.4956C4.07246 11.9972 4.98616 12.2769 5.88441 12.2769C6.87959 12.2769 7.85843 11.9344 8.71551 11.3256C8.57456 11.53 7.05007 13.5916 5.88441 13.5916V13.5915ZM10.2995 1.25825C10.5374 2.12798 10.6932 2.92613 10.7815 3.66422C11.1109 6.81691 10.2995 8.71732 9.45231 9.80758C8.53855 10.9828 7.21522 11.6842 5.88438 11.6842C4.55608 11.6842 3.20233 10.9844 2.29085 9.81171C2.07218 9.53021 1.85682 9.19108 1.66133 8.79404C0.868103 6.97008 0.527469 4.65242 1.45486 1.25862L10.2995 1.25825ZM6.28616 24.073H5.46896C4.1332 24.073 3.20977 24.0668 2.56347 23.9835C2.07075 23.9198 1.77644 23.808 1.77644 23.684C1.77644 23.4476 2.37231 23.239 2.93675 23.0549C4.07431 22.6843 5.58801 22.1767 5.58801 20.5544V16.7026C5.58801 15.6904 5.34454 14.822 4.91484 14.0087C5.18972 14.116 5.54627 14.1842 5.88436 14.1842C6.31549 14.1842 6.63213 14.075 6.96076 13.9122C6.51557 14.7536 6.18076 15.6502 6.18076 16.7025V20.5544C6.18076 22.1748 7.74615 22.6832 8.85726 23.0546C9.40662 23.238 10.0509 23.4461 10.0509 23.6842C10.0509 24.0729 7.88403 24.0729 6.28621 24.0729L6.28616 24.073Z" fill="black"/>
</svg>
