<svg width="15" height="25" viewBox="0 0 15 25" fill="none" xmlns="http://www.w3.org/2000/svg">
<path d="M14.1458 0.857072C14.1374 0.835727 14.1529 0.666016 13.8748 0.666016H1.27487C0.785825 0.666016 0.837511 0.93701 0.837511 0.968189L1.47704 22.9521C1.50969 24.2247 2.29004 24.4879 2.732 24.5377C3.5046 24.625 5.2358 24.666 7.3345 24.666H7.34287C9.57132 24.666 11.5507 24.6168 12.379 24.5229C12.9187 24.462 13.5021 24.1445 13.5331 22.9538C13.5331 22.9538 14.146 0.858454 14.1458 0.857382L14.1458 0.857072ZM13.5553 1.26597C13.396 3.75306 12.4248 18.9273 12.4046 19.6001C12.3887 20.1178 12.1907 20.3472 11.7211 20.3924C11.634 20.4006 11.5357 20.4089 11.4304 20.4165C10.4285 20.4535 8.94104 20.4658 7.31237 20.4658H7.31216C5.85299 20.4658 4.55722 20.4577 3.66997 20.4269C3.58501 20.4206 3.5011 20.4144 3.42911 20.4075C2.96623 20.3631 2.76199 20.1195 2.74608 19.5932C2.72516 18.9198 1.75395 3.75173 1.59473 1.26604L13.5553 1.26597ZM12.316 23.9372C11.5085 24.0287 9.55961 24.0875 7.3519 24.0875C5.30532 24.0875 3.57407 24.0356 2.83393 23.9519C2.52485 23.9172 2.16702 23.77 2.14565 22.9363L2.08894 20.7454C2.2735 20.8705 2.50076 20.9503 2.77175 20.9764C2.98855 20.9971 3.28298 21.0133 3.63746 21.0256C4.45254 21.0859 5.80377 21.121 7.35272 21.121C9.03244 21.121 10.5611 21.0808 11.4735 21.0145C11.8458 21.0005 12.1549 20.9833 12.3786 20.9618C12.6513 20.9354 12.8781 20.8607 13.0614 20.7427L13.0047 22.9437C12.9834 23.7531 12.6446 23.9004 12.316 23.9373L12.316 23.9372Z" fill="black"/>
</svg>
