<svg width="10" height="25" viewBox="0 0 10 25" fill="none" xmlns="http://www.w3.org/2000/svg">
<path d="M9.90282 0.823826C9.85239 0.727055 9.75236 0.666016 9.64313 0.666016H0.862797C0.766229 0.666016 0.679263 0.715217 0.624752 0.793409C0.61781 0.803617 0.609032 0.812395 0.603111 0.823828V0.824032C0.565546 0.896099 0.560647 0.979193 0.58637 1.05371C0.586574 1.05432 0.586574 1.05514 0.586574 1.05575C0.588616 1.06187 0.593107 1.06718 0.595557 1.07351C0.603519 1.09168 0.611277 1.11046 0.623118 1.1274C0.637409 1.14761 2.03341 3.16245 2.03341 5.66741C2.03341 6.80415 1.81067 7.71265 1.55262 8.76488C1.22924 10.0835 0.862791 11.5786 0.862791 13.8882C0.862791 16.5563 1.89683 19.2442 4.17481 19.8865C3.93778 20.1207 3.78956 20.4287 3.78956 20.7695C3.78956 21.2017 4.02516 21.5827 4.38344 21.8231C4.23563 21.9756 4.13906 22.179 4.10109 22.4264C2.81514 22.6783 0.907873 23.1867 0.907873 23.9821C0.907873 24.2042 0.907872 24.666 5.25294 24.666C9.598 24.666 9.598 24.2042 9.598 23.9821C9.598 23.1865 7.69058 22.6786 6.40478 22.4264C6.36681 22.1792 6.27024 21.976 6.12244 21.8231C6.48093 21.5828 6.71631 21.2017 6.71631 20.7695C6.71631 20.4285 6.56789 20.1203 6.33107 19.8861C8.60904 19.243 9.64308 16.5498 9.64308 13.8779C9.64308 11.5681 9.27662 10.0771 8.95325 8.76149C8.6954 7.71192 8.47247 6.80567 8.47247 5.66893C8.47247 3.16392 9.86849 1.14705 9.88255 1.12688C9.94502 1.03807 9.95298 0.920684 9.90276 0.823708L9.90282 0.823826ZM5.25295 24.0802C3.43454 24.0802 2.12224 23.9649 1.61183 23.8569C1.97482 23.5909 3.08745 23.2223 4.26668 22.9906C4.52596 23.1844 4.99634 23.2571 5.25295 23.2571C5.50957 23.2571 5.97995 23.1844 6.23923 22.9906C7.42515 23.2236 8.54312 23.5941 8.89935 23.8559C8.39284 23.9645 7.07749 24.0802 5.2529 24.0802L5.25295 24.0802ZM5.83298 22.5533C5.72294 22.6033 5.50041 22.6715 5.25295 22.6715C5.00531 22.6715 4.78299 22.6033 4.67293 22.5533C4.70417 22.2234 4.87933 22.0862 5.25295 22.0862C5.62676 22.0862 5.80173 22.2236 5.83298 22.5533ZM5.25295 21.5013C4.7689 21.5013 4.37487 21.1732 4.37487 20.7696C4.37487 20.366 4.76889 20.0379 5.25295 20.0379C5.73702 20.0379 6.13104 20.366 6.13104 20.7696C6.13104 21.173 5.73702 21.5013 5.25295 21.5013ZM5.25295 19.4455C4.05026 19.4455 2.70979 18.7611 1.98484 17.0115C2.84228 18.008 4.07336 18.5674 5.25295 18.5674C6.43198 18.5674 7.66222 18.0072 8.51987 17.0093C7.79491 18.7604 6.45502 19.4455 5.25295 19.4455V19.4455ZM7.88695 5.66921C7.88695 6.87677 8.12867 7.8598 8.38448 8.901C8.6999 10.1847 9.05758 11.639 9.05758 13.8779C9.05758 16.4132 7.08258 17.9821 5.25272 17.9821C3.42286 17.9821 1.44786 16.4168 1.44786 13.8881C1.44786 11.6494 1.80554 10.1907 2.12096 8.90409C2.37697 7.86064 2.61849 6.87499 2.61849 5.66738C2.61849 3.68156 1.8292 2.02302 1.38846 1.2515H9.11724C8.67667 2.02344 7.88721 3.68318 7.88721 5.66921H7.88695Z" fill="black"/>
</svg>
