<svg width="30" height="25" viewBox="0 0 30 25" fill="none" xmlns="http://www.w3.org/2000/svg">
<path d="M24.6572 3.93888H20.6589C20.6095 2.88876 20.5489 1.89572 20.4743 0.999563C20.4586 0.810851 20.301 0.666016 20.1118 0.666016H0.839338C0.650366 0.666016 0.492855 0.810851 0.476875 0.999563C-0.0595926 7.43591 0.090821 18.7974 0.479411 21.4909C0.90199 24.421 5.64902 24.666 10.4754 24.666C15.3016 24.666 20.0493 24.421 20.472 21.4909C20.4763 21.4614 20.4804 21.4252 20.4847 21.3935H24.6578C27.9765 21.3932 29.9527 19.2017 29.9527 15.5301V9.80296C29.9527 6.13086 27.9765 3.93907 24.6575 3.93907L24.6572 3.93888ZM1.8997 1.39326H19.0514C19.5235 7.13513 18.6859 16.895 18.2983 19.3086C17.9886 21.2364 15.5292 21.5752 10.4757 21.5752C5.42225 21.5752 2.96216 21.2358 2.65307 19.3086C2.26549 16.8949 1.42847 7.13474 1.89996 1.39326H1.8997ZM19.7969 21.3865C19.6629 23.7619 14.8078 23.9385 10.4983 23.9385C6.18874 23.9385 1.55035 23.7414 1.21075 21.3865C0.851584 18.8949 0.69508 8.87888 1.11335 2.36078C0.800345 8.23304 1.5689 17.1255 1.93795 19.4235C2.36712 22.096 5.74699 22.3025 10.4768 22.3025C15.2074 22.3025 18.5877 22.096 19.017 19.4235C19.386 17.1262 20.1573 8.23343 19.8441 2.36078C19.9747 4.39329 20.4807 9.2568 19.7967 21.3865H19.7969ZM29.2253 15.5298C29.2253 20.1655 26.0332 20.6657 24.6576 20.6657H20.5614C20.6269 19.9098 20.6824 18.8863 20.7255 17.6838C20.7773 17.7444 20.8295 17.8048 20.8866 17.8631C21.6138 18.6045 22.6756 19.0296 23.8048 19.0296C25.8601 19.0296 27.4069 17.5445 27.4069 15.5752V9.80268C27.4069 7.83335 25.8599 6.34824 23.8048 6.34824C22.4909 6.34824 21.4334 6.90094 20.78 7.65758C20.7585 6.63687 20.7303 5.63221 20.6913 4.66606H24.6573C26.0331 4.66606 29.2253 5.16625 29.2253 9.80268L29.2253 15.5298ZM20.8073 9.19998C20.9668 8.14934 22.1518 7.07338 23.8051 7.07338C25.4726 7.07338 26.68 8.22213 26.68 9.80237V15.5749C26.68 17.1551 25.4726 18.3021 23.8051 18.3021C22.87 18.3021 21.9961 17.9524 21.4043 17.3502C20.9896 16.9271 20.7679 16.3021 20.7773 15.9384H20.7755C20.8219 13.7567 20.8362 11.5503 20.8072 9.20017L20.8073 9.19998Z" fill="black"/>
</svg>
