<svg width="18" height="25" viewBox="0 0 18 25" fill="none" xmlns="http://www.w3.org/2000/svg">
<path d="M9.60776 11.6235L17.0019 0.985583C17.0653 0.894292 17.0755 0.8502 17.024 0.751839C16.9726 0.65368 16.8738 0.666574 16.763 0.666574H0.663974C0.553134 0.666574 0.45144 0.65368 0.399869 0.751839C0.348503 0.850206 0.34975 0.93193 0.41297 1.02281L7.81883 11.6596V21.4117C7.81883 21.5712 7.56969 21.7872 7.53267 22.0493C2.86461 23.3384 2.86402 23.579 2.86402 23.8321C2.86402 24.0602 2.86548 24.666 8.71162 24.666C14.5578 24.666 14.5587 24.0602 14.5587 23.8321C14.5587 23.5792 14.5495 23.3399 9.8838 22.0838C9.8526 21.8226 9.90563 21.6065 9.60763 21.4431L9.60776 11.6235ZM8.27268 11.3993L7.05152 9.64103C7.81388 10.1274 8.38932 10.2067 8.7056 10.2067H8.73992C9.04707 10.2067 9.61918 10.1237 10.382 9.63065L9.154 11.3994L8.27268 11.3993ZM8.41513 11.9955H9.01133V21.1209C9.01133 21.1016 8.8119 21.0887 8.70065 21.0887C8.59937 21.0887 8.41512 21.0983 8.41512 21.1143L8.41513 11.9955ZM8.71334 21.6847C9.09411 21.6847 9.27212 21.8245 9.30396 22.1605C9.19208 22.2115 8.96582 22.2809 8.71334 22.2809C8.46087 22.2809 8.23462 22.2115 8.12273 22.1605C8.15455 21.8245 8.33256 21.6847 8.71334 21.6847ZM16.1927 1.26285L12.4669 6.5531C12.4326 6.57161 12.4016 6.63441 12.3771 6.66997C10.4815 9.40025 9.12644 9.61049 8.73988 9.61049H8.71326H8.68664C8.30005 9.61049 6.94498 9.35054 5.04925 6.62046C5.02305 6.58262 4.98853 6.59509 4.95047 6.57783L1.23386 1.26282L16.1927 1.26285ZM8.71334 24.0698C6.39438 24.0698 4.68955 23.9348 3.88184 23.7948C4.67002 23.5031 6.23802 23.0281 7.72244 22.617C7.98925 22.8062 8.45674 22.8771 8.71334 22.8771C8.95874 22.8771 9.39484 22.8116 9.66619 22.6407C11.1575 23.0429 12.7354 23.5083 13.5342 23.7965C12.7219 23.9358 11.0217 24.0698 8.71329 24.0698H8.71334Z" fill="black"/>
</svg>
