<svg width="10" height="25" viewBox="0 0 10 25" fill="none" xmlns="http://www.w3.org/2000/svg">
<path d="M3.85487 21.4873C3.56036 21.6446 3.33162 21.8608 3.20194 22.1224C3.00399 22.521 2.67094 22.5851 2.1456 22.6434C1.97781 22.662 1.80416 22.6813 1.64266 22.7234C1.10138 22.8648 0.723113 23.36 0.723113 23.9276L0.722903 24.3656C0.722903 24.5315 0.857382 24.666 1.02328 24.666H9.18168C9.34759 24.666 9.48206 24.5315 9.48206 24.3656V23.9274C9.48206 23.3598 9.10397 22.8646 8.56252 22.7232C8.40625 22.6823 8.24119 22.6616 8.08136 22.6413C7.63184 22.5843 7.24348 22.5351 6.99402 22.105C6.8497 21.8564 6.6153 21.6524 6.32726 21.4997C7.05767 21.1136 7.59601 20.396 7.71773 19.5357L9.83525 4.57505C9.8474 4.48895 9.82163 4.40181 9.76466 4.33604C9.70768 4.27027 9.62494 4.23257 9.53801 4.23257H7.91609L8.43034 1.01388C8.45652 0.85007 8.34509 0.696109 8.18128 0.670133C8.01747 0.642693 7.86372 0.755385 7.83754 0.919191L7.30821 4.23258L0.667376 4.23279C0.580445 4.23279 0.497703 4.2705 0.440728 4.33627C0.383752 4.40205 0.357985 4.48919 0.370136 4.57527L2.48765 19.5359C2.6081 20.387 3.13661 21.0984 3.85507 21.4874L3.85487 21.4873ZM6.47453 22.4067C6.87315 23.0937 7.50116 23.1734 8.00598 23.2372C8.15324 23.2559 8.29212 23.2735 8.41089 23.3045C8.68781 23.3767 8.88136 23.6329 8.88136 23.9274V24.0655H1.32355V23.9274C1.32355 23.6329 1.5171 23.3767 1.79402 23.3045C1.91342 23.2732 2.05816 23.2573 2.21149 23.2402C2.70542 23.1855 3.38179 23.1105 3.73957 22.3895C3.90526 22.0556 4.39668 21.8275 4.99116 21.808C5.6554 21.7875 6.25407 22.0267 6.47441 22.4067L6.47453 22.4067ZM7.12284 19.4517C6.98124 20.4519 6.11278 21.2063 5.1025 21.2063C4.09221 21.2063 3.22377 20.452 3.08215 19.4517L1.50903 8.33755H6.65192L6.37625 10.0628C6.35007 10.2266 6.46151 10.3805 6.62531 10.4065C6.64123 10.4092 6.65736 10.4103 6.67286 10.4103C6.81781 10.4103 6.94538 10.3051 6.96905 10.1572L7.26001 8.33754H8.6959L7.12284 19.4517ZM9.19199 4.83321L8.78101 7.73685H7.356L7.81997 4.83337L9.19199 4.83321ZM7.21186 4.83321L6.74789 7.73685H1.42402L1.01303 4.83337L7.21186 4.83321Z" fill="black"/>
</svg>
