<svg width="25" height="25" viewBox="0 0 25 25" fill="none" xmlns="http://www.w3.org/2000/svg">
<path d="M24.1817 23.966H19.8014C21.8996 21.4631 23.3351 16.9723 24.0342 10.6045C24.6232 5.5248 24.5128 1.07102 24.5128 1.03421C24.5128 0.850111 24.3287 0.666016 24.1446 0.666016L5.44583 0.666272C5.26174 0.666272 5.07764 0.813395 5.07764 1.03446V2.8749C4.37821 2.6908 2.68521 2.3963 1.54388 3.20611C0.844451 3.72142 0.476562 4.53123 0.476562 5.67229C0.476562 9.90516 3.56842 13.8438 6.4395 16.1259C7.24929 19.6227 8.35361 22.2362 9.75214 23.9294L4.89353 23.9296C4.67272 23.9296 4.52534 24.0768 4.52534 24.2978C4.52534 24.5186 4.67246 24.666 4.89353 24.666H24.1813C24.4021 24.666 24.5495 24.5189 24.5495 24.2978C24.5492 24.0768 24.4021 23.9664 24.1813 23.9664L24.1817 23.966ZM5.81414 1.4391H23.8136C23.8503 3.94196 23.7399 18.8496 18.8813 23.9292H10.7466C5.88796 18.8495 5.81427 3.94209 5.81427 1.4391H5.81414ZM1.24981 5.67196C1.24981 4.78849 1.50759 4.16274 1.98591 3.83153C3.01656 3.09543 4.7833 3.57375 5.07777 3.68441C5.11449 5.45116 5.2249 7.95428 5.55636 10.6412C5.74046 12.2239 5.96127 13.6597 6.21879 15.0215C3.12719 12.2976 1.24975 8.80081 1.24975 5.67214L1.24981 5.67196Z" fill="black"/>
</svg>
