<svg width="17" height="19" viewBox="0 0 17 19" fill="none" xmlns="http://www.w3.org/2000/svg">
<path d="M16.4848 0.958053C16.4898 0.896049 16.4688 0.809088 16.4265 0.763361C16.3845 0.71779 16.3251 0.666016 16.2631 0.666016H1.15195C1.08995 0.666016 1.03058 0.692058 0.988414 0.737631C0.946406 0.783358 0.925326 0.896053 0.930442 0.958057C0.939742 1.07137 2.20184 17.0462 2.20648 17.2173C2.23113 18.1788 2.80109 18.3843 3.12803 18.4216C4.36641 18.5614 7.09476 18.666 8.6987 18.666C10.3029 18.666 13.0269 18.5614 14.265 18.4216C14.5921 18.3845 15.1466 18.179 15.1712 17.2173C15.1757 17.0461 16.4752 1.07115 16.4848 0.958053ZM12.0304 9.91127C12.5551 9.88663 13.055 9.85733 13.4884 9.82509C13.242 10.0167 13.0389 10.2408 12.9025 10.474C12.7062 10.2396 12.4043 10.0454 12.0304 9.91127ZM8.7935 10.5089C8.634 10.3039 8.39528 10.128 8.09842 9.99378C8.34535 9.99734 8.57973 9.99936 8.7935 9.99936C9.00726 9.99936 9.24196 9.99734 9.48886 9.99378C9.19201 10.128 8.95314 10.3041 8.7935 10.5089ZM4.51292 10.4743C4.37667 10.2412 4.1736 10.017 3.92697 9.8254C4.36038 9.85764 4.86015 9.88678 5.38499 9.91158C5.0111 10.0454 4.70903 10.2396 4.51292 10.4743ZM2.37422 9.71242C3.39867 9.71242 4.2632 10.571 4.2632 11.1104C4.2632 11.1188 4.26366 11.1273 4.26459 11.1356L4.67908 14.7626C4.09467 14.7287 3.57463 14.6893 3.19578 14.6464C2.93334 14.6168 2.47792 14.4182 2.43252 13.8622C2.33517 12.6413 2.21876 11.1986 2.09894 9.72524C2.18993 9.71796 2.28137 9.71242 2.37422 9.71242ZM5.12924 14.7874L4.70808 11.1041C4.71521 10.6454 5.47182 10.157 6.59627 10.157C7.72599 10.157 8.48524 10.6501 8.48524 11.1106V14.8879C7.37429 14.8847 6.29321 14.8467 5.12924 14.7874ZM8.92993 11.1104C8.92993 10.65 9.63862 10.1568 10.7684 10.1568C11.893 10.1568 12.6744 10.6451 12.6817 11.1039L12.2233 14.7874C11.139 14.8428 10.041 14.8798 8.92993 14.887V11.1104ZM13.1506 11.1356C13.1517 11.1273 13.1521 11.119 13.1521 11.1104C13.1521 10.5712 14.0166 9.71242 15.0411 9.71242C15.1338 9.71242 15.2253 9.718 15.3164 9.72529C15.1966 11.1982 15.0805 12.6404 14.9831 13.861C14.9385 14.418 14.4823 14.6169 14.2196 14.6463C13.8407 14.6892 13.3207 14.7285 12.7359 14.7626L13.1506 11.1356ZM16.022 1.1105C15.9462 2.02785 15.6833 5.22283 15.4137 8.5288C15.3754 8.98654 14.605 9.26975 14.2197 9.31332C12.9954 9.45175 10.2999 9.55514 8.70775 9.55514C7.11555 9.55514 4.42002 9.45175 3.19581 9.31332C2.81046 9.26976 2.03973 8.98641 2.0016 8.5288C1.73219 5.22302 1.46914 2.02797 1.39334 1.1105H16.022ZM14.7297 17.2062C14.7111 17.9242 14.3412 17.9662 14.2197 17.9797C12.9954 18.1183 10.2999 18.2215 8.70775 18.2215C7.11555 18.2215 4.42002 18.1181 3.19581 17.9797C3.07428 17.9659 2.70442 17.9242 2.68597 17.2062C2.68225 17.0621 2.61373 16.156 2.51003 14.8401C2.70286 14.979 2.92606 15.0635 3.14587 15.0883C4.38425 15.228 7.10359 15.3328 8.7078 15.3328C10.312 15.3328 13.0316 15.2281 14.2697 15.0883C14.4895 15.0634 14.7129 14.979 14.9056 14.8401C14.8017 16.156 14.7331 17.0617 14.7297 17.2062Z" fill="black"/>
</svg>
