<svg width="10" height="25" viewBox="0 0 10 25" fill="none" xmlns="http://www.w3.org/2000/svg">
<path d="M7.6148 17.8498C7.6148 16.8032 7.79431 15.9218 8.04324 14.7022C8.51727 12.3762 9.23427 8.86064 9.23427 0.960541C9.23427 0.882287 9.20326 0.807524 9.14801 0.752278C9.09255 0.697232 9.01779 0.666016 8.93975 0.666016H8.93954L1.24766 0.670534C1.08519 0.670534 0.953125 0.802394 0.953125 0.965065C0.953125 8.86517 1.67015 12.3822 2.14416 14.7099C2.39289 15.9308 2.5726 16.8125 2.5726 17.859C2.5726 19.757 1.98129 20.7667 1.50623 21.5778C1.20945 22.0845 0.953305 22.5224 0.953305 23.0303C0.953305 24.2854 3.7842 24.5631 5.04795 24.5923C5.05699 24.5931 5.06623 24.6658 5.07568 24.6658L5.09396 24.666V24.5206C6.27164 24.4939 9.22535 24.2947 9.22535 23.0305C9.22535 22.5226 8.97396 22.0838 8.67716 21.5757C8.20209 20.7612 7.61489 19.7479 7.61489 17.85L7.6148 17.8498ZM2.7212 14.5919C2.25743 12.3164 1.55993 8.89335 1.54226 1.2593L8.64525 1.25519C8.62759 8.88871 7.93006 12.3106 7.46631 14.5847C7.22046 15.7913 7.02616 16.7441 7.02616 17.8501C7.02616 19.5976 7.5041 20.679 7.94489 21.4738C6.93294 21.8174 5.30523 21.8661 5.09365 21.871C4.88251 21.8661 3.25604 21.8174 2.24446 21.4744C2.6844 20.6826 3.16113 19.6042 3.16113 17.8596C3.16175 16.7532 2.96704 15.7997 2.72119 14.5922L2.7212 14.5919ZM5.09386 23.9317C3.13485 23.8904 1.54226 23.4864 1.54226 23.03C1.54226 22.7129 1.71602 22.3884 1.94626 21.9926C3.01573 22.3886 4.70323 22.5223 5.04825 22.5309C5.05709 22.5318 5.06653 22.6045 5.07557 22.6045H5.11234C5.12137 22.6045 5.13062 22.5318 5.13965 22.5309C5.48512 22.5223 7.17465 22.4256 8.24349 22.0296C8.47291 22.4254 8.64563 22.7318 8.64563 23.0483C8.64543 23.5047 7.05284 23.8904 5.09382 23.9317L5.09386 23.9317Z" fill="black"/>
</svg>
