<svg width="10" height="25" viewBox="0 0 10 25" fill="none" xmlns="http://www.w3.org/2000/svg">
<path d="M7.86558 22.3466C7.01487 22.0548 6.38838 21.8039 6.38838 21.2261V18.8142C6.68248 18.5966 6.8074 18.4415 6.98698 18.2337C8.65228 16.3038 9.07109 12.2455 9.04262 8.54106C9.05925 4.78064 8.52882 1.28275 8.47435 0.934764C8.47372 0.9304 8.47414 0.923748 8.47414 0.920423V0.919799V0.917513C8.47414 0.900885 8.46728 0.886751 8.46188 0.871578C8.45585 0.853495 8.45481 0.834373 8.44525 0.817954C8.43548 0.800078 8.42135 0.786568 8.40825 0.771187C8.39869 0.760379 8.39183 0.7477 8.38144 0.738347C8.36336 0.72255 8.34153 0.712781 8.32033 0.701766C8.31077 0.696985 8.30246 0.689294 8.29227 0.685346C8.25964 0.672667 8.22473 0.666016 8.18773 0.666016H0.88739C0.850393 0.666016 0.815265 0.672667 0.782217 0.685138C0.77515 0.68784 0.76933 0.693452 0.762263 0.696778C0.73753 0.708417 0.713418 0.72068 0.693048 0.738139C0.684734 0.744999 0.679954 0.755183 0.672471 0.763081C0.656051 0.780333 0.639423 0.796961 0.627575 0.818164C0.620716 0.830427 0.618638 0.845184 0.61365 0.858486C0.606167 0.877816 0.596398 0.896315 0.593072 0.917517C0.550463 1.18627 0.00462937 4.72614 0.0204326 8.53179C-0.00845856 12.2392 0.372946 16.303 2.03947 18.2345C2.28369 18.517 2.51461 18.7479 2.81244 18.9281V21.2263C2.81244 21.9031 2.00014 22.1231 1.32859 22.3456C0.639152 22.5738 0 22.7893 0 23.3728C0 24.576 1.85009 24.666 4.60033 24.666C7.30736 24.666 9.17363 24.5731 9.17363 23.3728C9.17363 22.7916 8.53325 22.5753 7.86542 22.3468L7.86558 22.3466ZM7.92793 1.26184C8.04703 2.15704 8.42823 5.28001 8.44943 8.65104C8.43072 11.764 8.03207 15.0042 6.65797 16.6122C6.08225 17.2859 5.45182 17.6131 4.60047 17.6131C3.74912 17.6131 2.99253 17.2855 2.41723 16.6122C1.04624 15.0074 0.64637 11.777 0.626203 8.6702C0.646157 5.29225 1.02777 2.15895 1.14728 1.26184H7.92793ZM1.92272 16.9459C1.93706 16.9631 1.94953 16.9824 1.96387 16.9995C2.64979 17.8022 3.57867 18.2096 4.60066 18.2096C5.62266 18.2096 6.4258 17.8026 7.11167 16.9995C7.12601 16.9824 7.13849 16.9631 7.15283 16.9459C6.97699 17.2828 6.24912 18.8053 4.60106 18.8053C2.95279 18.8051 2.09835 17.2828 1.92271 16.9459H1.92272ZM4.60022 19.4012C5.06829 19.4012 5.49419 19.3079 5.792 19.1271V21.2261C5.792 21.3327 5.83025 21.4311 5.85103 21.5242C5.85103 21.5242 4.97371 21.753 4.60018 21.753C4.22647 21.753 3.44203 21.6206 3.37823 21.5853C3.40941 21.4749 3.40837 21.356 3.40837 21.2261V19.2173C3.70622 19.3382 4.21752 19.4012 4.60015 19.4012L4.60022 19.4012ZM4.60022 24.0697C2.68553 24.0697 0.60807 24.0159 0.60807 23.3724C0.60807 23.2196 1.19151 23.0265 1.54009 22.9112C2.06033 22.7393 2.70239 22.525 3.09604 22.1155C3.28456 22.2143 3.93739 22.3394 4.60043 22.3394C5.26347 22.3394 5.9163 22.1922 6.11296 22.0255C6.4821 22.4936 7.15805 22.7251 7.69679 22.9099C8.05346 23.0321 8.59284 23.2169 8.59284 23.3724C8.59242 24.0159 6.54864 24.0697 4.60027 24.0697H4.60022Z" fill="black"/>
</svg>
