<svg width="12" height="25" viewBox="0 0 12 25" fill="none" xmlns="http://www.w3.org/2000/svg">
<path d="M9.40531 17.85C9.40531 16.8138 9.64911 15.9366 9.98716 14.7221C10.6345 12.392 11.6137 8.87048 11.6137 0.960338C11.6137 0.882083 11.5827 0.807319 11.5274 0.752073C11.472 0.697232 11.3976 0.666016 11.3191 0.666016L1.27109 0.67074C1.10863 0.67074 0.976562 0.8026 0.976562 0.965272C0.976562 8.87594 1.95566 12.3988 2.60344 14.7302C2.9409 15.9453 3.18492 16.8232 3.18492 17.8593C3.18492 19.784 2.80454 20.8045 2.49912 21.6242C2.31427 22.1208 2.15427 22.5497 2.15427 23.0305C2.15427 24.2856 4.98518 24.5633 6.24894 24.5925C6.25798 24.5933 6.26722 24.666 6.27667 24.666H6.31344V24.5206C7.56342 24.4939 10.4356 24.2947 10.4356 23.0305C10.4356 22.5493 10.2758 22.1194 10.0908 21.6215C9.78554 20.7987 9.40516 19.7748 9.40516 17.8501L9.40531 17.85ZM3.17089 14.5724C2.53951 12.3008 1.59002 8.88268 1.56615 1.25962L11.0242 1.2549C11.0004 8.87795 10.0505 12.2941 9.4195 14.564C9.08246 15.776 8.81625 16.7331 8.81625 17.8498C8.81625 19.54 9.10544 20.6014 9.37839 21.3838C8.53958 21.75 6.92416 21.8592 6.29467 21.8705C5.65919 21.8594 4.05013 21.7504 3.2128 21.3848C3.48556 20.6053 3.77372 19.5467 3.77372 17.859C3.77372 16.7423 3.50754 15.7848 3.17068 14.5721L3.17089 14.5724ZM6.2953 23.9316C4.33628 23.8903 2.74368 23.4863 2.74368 23.03C2.74368 22.6857 2.86034 22.3471 3.01192 21.9375C4.07604 22.3828 5.88963 22.5216 6.24991 22.5309C6.25894 22.5317 6.26819 22.6044 6.27722 22.6044H6.31358C6.32261 22.6044 6.33186 22.5317 6.34089 22.5309C6.70197 22.5221 8.51802 22.4183 9.5793 21.9726C9.73088 22.383 9.84692 22.7042 9.84692 23.0483C9.84692 23.5047 8.25432 23.8904 6.2953 23.9317L6.2953 23.9316Z" fill="black"/>
</svg>
