<svg width="14" height="25" viewBox="0 0 14 25" fill="none" xmlns="http://www.w3.org/2000/svg">
<path d="M2.80708 0.870007L0.67674 7.21078C0.0474838 9.0835 0.756053 11.1567 2.39961 12.2526L5.38293 14.2417C5.42457 14.2701 6.39871 14.9603 6.51587 16.5541V16.5572V24.0658H4.12399C3.95825 24.0658 3.8239 24.2002 3.8239 24.3659C3.8239 24.5317 3.95825 24.666 4.12399 24.666H9.50743C9.67317 24.666 9.80752 24.5317 9.80752 24.3659C9.80752 24.2002 9.67317 24.0658 9.50743 24.0658H7.11593L7.1153 16.5765C7.23312 14.9605 8.20747 14.2706 8.24615 14.2438L11.2324 12.2531C12.8762 11.1571 13.5847 9.08396 12.9552 7.21124L10.8247 0.870468C10.7837 0.748259 10.6692 0.666016 10.5403 0.666016H3.0911C2.9622 0.666016 2.84773 0.748259 2.80671 0.870468L2.80708 0.870007ZM12.3868 7.40204C12.9299 9.01841 12.3184 10.8076 10.8998 11.7535L7.91206 13.7453C7.8746 13.7704 7.21959 14.2241 6.81614 15.2179C6.41268 14.2239 5.75724 13.7704 5.71877 13.7443L2.73256 11.7535C1.31398 10.8077 0.702454 9.01841 1.24551 7.40204L1.91725 5.40273H11.715L12.3868 7.40204ZM10.3252 1.26537L11.5136 4.80235H2.11922L3.30744 1.26537H10.3252Z" fill="black"/>
</svg>
