<svg width="15" height="25" viewBox="0 0 15 25" fill="none" xmlns="http://www.w3.org/2000/svg">
<path d="M14.288 8.84665C15.5308 5.84671 14.4875 1.98847 13.252 0.753026C13.1962 0.697222 13.1205 0.666016 13.0424 0.666016H2.37576C2.29722 0.666016 2.22178 0.697224 2.16619 0.752819C1.50894 1.41007 0.948628 2.72165 0.704344 4.17582C0.423466 5.84725 0.574551 7.50586 1.1301 8.84655C1.56744 9.90184 2.32449 11.0806 3.8492 11.8347C4.31298 12.0615 6.52178 13.9007 6.52178 16.3947L6.52199 20.518C6.52199 21.7058 5.26744 22.1094 4.10549 22.4653C3.17686 22.7497 2.4066 22.9955 2.4066 23.6661C2.40598 24.666 4.4176 24.666 7.72457 24.666C11.3578 24.666 13.1119 24.6234 13.1119 23.6661C13.1119 22.9971 12.2698 22.7509 11.3638 22.4661C10.2324 22.1104 8.89187 21.7076 8.89187 20.518V16.3947C8.89187 13.606 11.7494 11.6729 11.7494 11.6729C13.0792 10.9188 13.8807 9.82956 14.2879 8.8466L14.288 8.84665ZM11.1899 23.0313C11.7576 23.2098 12.4957 23.4322 12.4957 23.6672C12.3463 24.0738 9.57102 24.0738 7.72452 24.0738C6.07834 24.0738 3.02237 24.0738 3.02237 23.6664C3.02237 23.4341 3.69057 23.2113 4.27485 23.0323C5.49776 22.6578 7.11442 22.1442 7.11442 20.5183V16.395C7.11442 15.517 6.93481 14.729 6.58325 14.048C6.92614 14.0802 7.31182 14.0986 7.67785 14.0986C8.13069 14.0986 8.52092 14.0726 8.93674 14.0228C8.58869 14.7095 8.29954 15.5061 8.29954 16.395V20.5183C8.29954 22.1426 9.99679 22.6566 11.19 23.0313L11.1899 23.0313ZM9.39615 13.3699C8.87408 13.4602 8.30674 13.5059 7.70902 13.5059C7.20265 13.5059 6.71944 13.4712 6.26558 13.4061C5.99917 13.0099 5.7059 12.6621 5.42215 12.3663C6.08908 12.5234 6.84346 12.617 7.70928 12.617C8.68626 12.617 9.52414 12.5 10.2504 12.3035C9.96476 12.6034 9.66695 12.9601 9.39615 13.3699V13.3699ZM7.70902 12.0244C6.33458 12.0244 5.07966 11.7564 4.19072 11.3037C3.30178 10.8513 2.15967 9.78379 1.6775 8.61977C0.593063 6.00179 1.40675 2.48328 2.50316 1.25842H12.9148C14.0114 2.4836 14.8249 6.0019 13.7404 8.61977C12.8182 10.8472 10.7324 12.0244 7.70923 12.0244H7.70902Z" fill="black"/>
</svg>
