<svg width="10" height="13" viewBox="0 0 10 13" fill="none" xmlns="http://www.w3.org/2000/svg">
<path d="M9.20413 0.832802C9.2095 0.790744 9.19638 0.748168 9.16848 0.716237C9.14026 0.684203 9.09965 0.666016 9.05718 0.666016H0.538749C0.496276 0.666016 0.455666 0.684203 0.427661 0.716237C0.399656 0.748271 0.386428 0.790744 0.391801 0.832802C0.400068 0.897802 1.68766 11.215 1.74605 11.7136C1.79017 12.0914 1.87625 12.4483 2.20445 12.5019C2.7785 12.5957 4.04729 12.666 4.79795 12.666C5.5486 12.666 6.81729 12.5957 7.39186 12.5021C7.71985 12.4485 7.80593 12.0915 7.85006 11.7138C7.90824 11.2151 9.19594 0.898087 9.20412 0.833009L9.20413 0.832802ZM1.42193 6.6338C1.46596 6.75874 1.51173 6.88398 1.56165 7.01025C2.33153 8.95716 3.45067 9.98615 4.79812 9.98615C6.14557 9.98615 7.26431 8.95711 8.0338 7.00999C8.08413 6.88257 8.13042 6.75577 8.17465 6.6297C8.03525 7.74659 7.89574 8.8706 7.77598 9.8503C7.72917 10.226 7.63895 10.8227 7.3585 10.8768C7.06749 10.9329 5.89811 11.0176 4.79828 11.0176C3.69845 11.0176 2.52897 10.9329 2.23807 10.8769C1.95752 10.8228 1.86739 10.226 1.82059 9.85019C1.70061 8.87198 1.56142 7.74932 1.42213 6.63382L1.42193 6.6338ZM8.88879 0.962166C8.83484 1.38719 8.68335 2.59183 8.49755 4.07324H8.49589C8.48897 4.07324 7.76476 9.70811 4.79778 9.70811C1.8308 9.70811 1.10523 4.07324 1.09835 4.07324H1.09825C0.912446 2.59178 0.761056 1.38703 0.707009 0.962166H8.88879ZM7.5556 11.6793C7.50269 12.1323 7.40938 12.1988 7.34376 12.2095C6.78305 12.3011 5.53719 12.3696 4.79791 12.3696C4.05863 12.3696 2.81277 12.3011 2.25206 12.2094C2.18644 12.1987 2.09313 12.1322 2.04022 11.6791C2.01862 11.4947 1.99444 11.2909 1.9684 11.0726C2.03019 11.1183 2.10005 11.152 2.18159 11.1679C2.49087 11.2274 3.66398 11.314 4.79801 11.314C5.93205 11.314 7.10505 11.2276 7.41444 11.1678C7.49608 11.1521 7.56573 11.1182 7.62763 11.0727C7.60159 11.2908 7.57731 11.4948 7.5556 11.6793H7.5556Z" fill="black"/>
</svg>
