<svg width="14" height="15" viewBox="0 0 14 15" fill="none" xmlns="http://www.w3.org/2000/svg">
<path d="M0.443964 0.825365C0.352223 0.929537 0.310216 1.06833 0.32836 1.20577L1.96627 14.0396C2.01231 14.3982 2.31778 14.6667 2.67937 14.666H11.2641C11.6257 14.6667 11.9312 14.3982 11.9772 14.0396L12.2085 12.2283L13.6152 1.21051C13.6333 1.07272 13.5913 0.933941 13.4996 0.829759C13.4072 0.724572 13.2738 0.664754 13.1336 0.666105H0.809951C0.670824 0.663416 0.537074 0.721555 0.44399 0.825063L0.443964 0.825365ZM2.91532 7.17509L3.35857 11.7904V11.7901C3.37336 11.9393 3.4977 12.0535 3.64758 12.0552H3.67648C3.75478 12.0478 3.8267 12.0095 3.87643 11.949C3.92616 11.8885 3.94969 11.8105 3.94162 11.7323L3.49333 7.04968C3.84988 6.79932 5.01098 6.1776 6.61525 7.10748V11.747V11.7467C6.61525 11.909 6.74698 12.0407 6.9093 12.0407H6.9718C7.13411 12.0407 7.26552 11.909 7.26552 11.7467V7.12194C8.87452 6.19205 10.0356 6.81345 10.3874 7.06414L9.93948 11.7326V11.7323C9.92536 11.8942 10.043 12.0374 10.2043 12.0552H10.2332C10.3841 12.0539 10.5101 11.94 10.5272 11.7901L10.9705 7.17477V7.17511C11.404 6.92173 11.8644 6.71808 12.3436 6.56787L11.6449 12.0119C11.4171 12.2569 11.1372 12.4481 10.826 12.5707C10.2046 12.855 9.03382 13.1921 6.97179 13.2065C4.90975 13.221 3.74397 12.8547 3.11759 12.5707C2.80036 12.4467 2.51673 12.2505 2.28889 11.9974L1.60503 6.56787C2.06239 6.72212 2.50197 6.92542 2.91525 7.17511L2.91532 7.17509ZM11.3943 13.963C11.3892 14.0302 11.3318 14.0813 11.2642 14.0786H2.67946C2.61191 14.0813 2.55445 14.0302 2.54941 13.963L2.40491 12.855C3.07466 13.2791 4.37515 13.7606 6.83713 13.8184H7.12143C9.56888 13.7848 10.8647 13.3076 11.5392 12.8886L11.3947 13.9871L11.3943 13.963ZM13.0181 1.2685L12.4256 5.93189H12.4253C11.8416 6.09958 11.279 6.33381 10.7488 6.63054C10.4362 6.40774 10.0851 6.24441 9.71305 6.14864C8.75933 5.92819 7.75726 6.10193 6.93327 6.63054C6.10792 6.1016 5.10411 5.92785 4.14876 6.14864C3.77675 6.24441 3.42592 6.40773 3.11305 6.63054C2.60965 6.34724 2.07666 6.12108 1.52324 5.95609L0.925736 1.26852L13.0181 1.2685Z" fill="black"/>
</svg>
