<svg width="19" height="22" viewBox="0 0 19 22" fill="none" xmlns="http://www.w3.org/2000/svg">
<path d="M18.4522 1.17582C18.4582 1.10407 18.4339 1.00345 18.3853 0.950534C18.3367 0.897801 18.2679 0.837891 18.1961 0.837891H0.710315C0.638567 0.837891 0.569868 0.868025 0.52108 0.92076C0.47247 0.973672 0.448079 1.10408 0.453998 1.17582C0.46476 1.30694 1.9835 19.7921 1.98832 19.99C2.0172 21.1027 2.64734 21.3405 3.02599 21.3836C4.45897 21.5454 7.60136 21.6664 9.45734 21.6664C11.3133 21.6664 14.4579 21.5454 15.891 21.3836C16.2693 21.3407 16.865 21.1029 16.8939 19.99C16.8991 19.792 18.4416 1.30669 18.4522 1.17582ZM13.2979 8.96453C13.904 8.93601 14.4815 8.90229 14.9822 8.8648C14.6968 9.08614 14.4615 9.34497 14.3043 9.61221C14.0772 9.34226 13.7286 9.11895 13.2979 8.96453ZM9.45312 9.65602C9.26855 9.41889 8.99233 9.2153 8.64881 9.05999C8.93437 9.06412 9.20576 9.06645 9.45312 9.06645C9.70029 9.06645 9.97187 9.06412 10.2578 9.05999C9.91408 9.21533 9.63749 9.41909 9.45312 9.65602ZM4.59907 9.61602C4.44141 9.3466 4.20643 9.0869 3.92104 8.86516C4.42256 8.90246 5.00086 8.93619 5.60818 8.96489C5.17572 9.11968 4.826 9.34444 4.59907 9.61602ZM2.12447 8.73443C3.30991 8.73443 4.31029 9.72797 4.31061 10.3706L4.8035 17.1505C4.12207 17.1112 3.51581 17.0651 3.07439 17.0153C2.77072 16.981 2.24372 16.7512 2.19119 16.1078C2.02258 13.9908 1.80376 11.296 1.59765 8.7728C1.77038 8.7502 1.94545 8.73443 2.12447 8.73443ZM5.32155 17.1789L4.82453 10.3521C4.82453 9.81939 5.70291 9.24867 7.01035 9.24867C8.3176 9.24867 9.19616 9.81925 9.19616 10.3521L9.17123 17.2941C8.06813 17.2877 6.61017 17.2445 5.32155 17.1789ZM9.71018 10.3521C9.71018 9.81939 10.5886 9.24867 11.896 9.24867C13.2 9.24867 14.0766 9.81618 14.0813 10.348L13.5844 17.1784C12.2763 17.2449 10.7943 17.2885 9.68566 17.2935L9.71018 10.3521ZM14.5959 10.3521C14.5959 9.7281 15.5964 8.73443 16.7817 8.73443C16.9604 8.73443 17.1358 8.75003 17.3078 8.77245C17.1019 11.2954 16.8832 13.9893 16.7143 16.1066C16.6626 16.751 16.1347 16.9812 15.8311 17.0153C15.3898 17.0651 14.7837 17.1112 14.102 17.1505L14.5959 10.3521ZM17.9166 1.3521C17.8489 2.17128 17.6525 4.55923 17.4228 7.36422C17.382 7.85352 16.3806 8.21031 15.831 8.27216C14.4145 8.43234 11.2953 8.55198 9.45294 8.55198C7.61046 8.55198 4.49144 8.43234 3.07485 8.27216C2.52507 8.21028 1.52386 7.85351 1.48313 7.36422C1.25336 4.55905 1.05677 2.17128 0.989321 1.3521H17.9166ZM16.4208 19.9771C16.3995 20.808 15.9717 20.8566 15.8308 20.8722C14.4145 21.0325 11.2953 21.152 9.45322 21.152C7.61073 21.152 4.49171 21.0324 3.07513 20.8722C2.9345 20.8562 2.50652 20.808 2.48516 19.9771C2.48086 19.8103 2.40158 18.7619 2.28158 17.2392C2.50472 17.4 2.76299 17.4977 3.01733 17.5264C4.45031 17.6882 7.59698 17.8093 9.45328 17.8093C11.3096 17.8093 14.4561 17.6882 15.8892 17.5264C16.1436 17.4975 16.4017 17.4 16.625 17.2392C16.5052 18.7619 16.4255 19.8099 16.4208 19.9771Z" fill="black"/>
</svg>
