<svg width="18" height="25" viewBox="0 0 18 25" fill="none" xmlns="http://www.w3.org/2000/svg">
<path d="M4.33797 24.666H14.4319C14.5748 24.666 14.6979 24.5652 14.7261 24.4252C17.3367 11.455 17.8157 1.08247 17.8201 0.979076C17.8236 0.897257 17.7937 0.817735 17.7372 0.758512C17.6805 0.699498 17.602 0.666016 17.5204 0.666016H1.24917C1.16735 0.666016 1.08887 0.699498 1.03237 0.758512C0.975871 0.817735 0.945946 0.897466 0.949503 0.979076C0.953898 1.08245 1.4329 11.455 4.04347 24.4252C4.07172 24.5652 4.19476 24.666 4.33769 24.666H4.33797ZM17.2048 1.26601C17.1043 3.07635 16.4945 12.5101 14.1863 24.066H4.58418C2.27579 12.5101 1.6662 3.07672 1.56576 1.26601H17.2048Z" fill="black"/>
</svg>
