<svg width="24" height="25" viewBox="0 0 24 25" fill="none" xmlns="http://www.w3.org/2000/svg">
<path d="M1.3362 15.4544C1.35848 15.4603 1.38049 15.4622 1.4025 15.4622C1.53377 15.4622 1.65187 15.3723 1.68301 15.2405C1.7485 14.9603 1.8234 14.6975 1.91198 14.4381C1.96352 14.2876 1.88272 14.1246 1.73186 14.0717C1.58074 14.0191 1.41673 14.1018 1.36545 14.2521C1.2707 14.5302 1.1907 14.8102 1.12065 15.107C1.08494 15.2627 1.18105 15.4185 1.3362 15.4544Z" fill="black"/>
<path d="M21.4925 7.51952C19.9936 6.0214 17.9194 5.33208 15.857 5.62386L16.7968 3.13283C16.8102 3.09927 16.8199 3.06357 16.8199 3.02519V3.02331C16.8199 2.86359 16.6905 2.73582 16.5313 2.73582C16.527 2.73582 16.5241 2.73823 16.5198 2.7385C16.4916 2.73931 16.4656 2.74763 16.439 2.75649C16.4309 2.75944 16.421 2.75836 16.4132 2.76239C16.413 2.76239 16.4124 2.76266 16.4122 2.7632C16.4103 2.764 16.4084 2.76508 16.4063 2.76588C16.3958 2.77044 16.3859 2.77501 16.3754 2.78118C16.3383 2.804 12.6574 5.05479 10.799 2.73609C9.75294 1.43202 8.596 0.736797 7.35934 0.671034C5.65774 0.581377 4.42246 1.72084 4.26812 1.87175C4.26034 1.87819 4.25067 1.88141 4.24343 1.88866C4.22678 1.90637 4.21793 1.92758 4.20638 1.94744C4.20397 1.9512 4.20182 1.95442 4.1994 1.95818C4.18867 1.97939 4.18088 2.00006 4.17551 2.02287C4.17363 2.03093 4.17256 2.03898 4.17122 2.04757C4.16827 2.06958 4.16504 2.09025 4.16665 2.11226C4.16853 2.13964 4.17444 2.16702 4.18437 2.19333C4.18625 2.19789 4.18759 2.20299 4.18974 2.20756L5.69969 6.20476C6.19145 7.50319 5.42186 8.90841 4.49822 9.66781C3.36059 10.6071 2.42863 11.8118 1.80288 13.1478C1.73524 13.2906 1.79698 13.4635 1.94139 13.5311C1.98139 13.5499 2.02299 13.5571 2.06379 13.5571C2.17223 13.5571 2.27666 13.497 2.32551 13.3918C2.91498 12.1331 3.79326 10.9979 4.86486 10.1132C6.1826 9.03113 6.74739 7.34162 6.23895 5.99976L4.79346 2.17435C5.13892 1.88499 6.11656 1.18625 7.33253 1.24803C8.39608 1.30601 9.41043 1.92985 10.3473 3.09696C12.0059 5.16572 14.7157 4.24421 15.9862 3.64161L15.0969 6.00029C14.8653 6.61178 14.8588 7.29522 15.0422 7.96062C15.0449 7.97297 15.043 7.98532 15.0473 7.99766C15.05 8.00491 15.0559 8.01028 15.0588 8.01726C15.2859 8.79192 15.7704 9.53847 16.4699 10.1134C18.6577 11.9176 19.9123 14.5933 19.9123 17.4546C19.9123 19.5645 19.245 21.5602 17.9828 23.221C17.6304 23.6833 16.7314 24.0891 16.059 24.0891H5.2778C4.60593 24.0891 3.70697 23.6833 3.35452 23.221C2.09264 21.5635 1.42505 19.5682 1.42505 17.4546C1.42505 17.0844 1.44625 16.7218 1.4892 16.3479C1.50772 16.1901 1.39418 16.0454 1.23554 16.0285C1.0785 16.0078 0.93409 16.1224 0.916106 16.2803C0.870204 16.6786 0.847656 17.0619 0.847656 17.4547C0.847656 19.6963 1.5558 21.8121 2.89498 23.5724C3.41063 24.2489 4.5335 24.666 5.2773 24.666H16.0606C16.8052 24.666 17.9272 24.2489 18.4434 23.5706C19.7279 21.88 20.4245 19.8633 20.48 17.7266C20.8607 17.4796 21.2203 17.197 21.5436 16.8738C24.1095 14.3063 24.0855 10.1082 21.4925 7.51952ZM16.8389 9.66539C16.3665 9.27751 15.9349 8.71914 15.6917 8.09291C16.0372 8.0003 16.3979 7.95171 16.7689 7.95171C17.9095 7.95171 18.9856 8.4008 19.7987 9.21228C21.3475 10.7611 21.4697 13.1966 20.1509 14.8424C19.6181 12.8281 18.4764 11.0172 16.8389 9.66539ZM20.4796 17.023C20.4584 16.5189 20.3999 16.0218 20.3068 15.5338C22.1103 13.6728 22.073 10.6714 20.2064 8.80449C19.284 7.88215 18.0637 7.37453 16.7683 7.37453C16.3434 7.37453 15.9298 7.43117 15.533 7.53854C15.4541 7.11549 15.471 6.67743 15.6237 6.2487C17.6074 5.86242 19.6386 6.48142 21.0839 7.92693C23.452 10.2924 23.475 14.1223 21.1359 16.4652C20.9322 16.6692 20.7097 16.8518 20.4796 17.023Z" fill="black"/>
</svg>
