<svg width="14" height="15" viewBox="0 0 14 15" fill="none" xmlns="http://www.w3.org/2000/svg">
<path d="M2.89391 14.666H10.6581C11.2694 14.666 12.0031 14.4826 12.0336 13.9935L13.0731 1.09396C13.0731 1.00227 13.0426 0.910585 12.9814 0.818898C12.8592 0.666016 12.6146 0.666016 12.4922 0.666016H0.998788C0.87661 0.666016 0.662532 0.696507 0.509656 0.818898C0.44846 0.880094 0.417969 1.00227 0.417969 1.09396L1.45722 13.9935C1.5489 14.5131 2.2826 14.666 2.8939 14.666H2.89391ZM11.4223 13.9018C11.3611 13.963 11.086 14.0547 10.6276 14.0547H2.89396C2.43553 14.0547 2.19096 13.963 2.09926 13.9018L1.45723 5.98479C1.97685 6.22936 2.58818 6.41273 3.47475 6.41273C4.97262 6.41273 5.76733 5.86262 6.56203 5.31229C7.29571 4.79267 7.99871 4.33401 9.28256 4.33401C10.5969 4.33401 11.2693 4.82315 12.0031 5.31229C12.0336 5.34278 12.0643 5.37348 12.1253 5.37348L11.4223 13.9018ZM12.4615 1.27736L12.1865 4.70089C11.4528 4.21176 10.6581 3.72262 9.28261 3.72262C7.78474 3.72262 6.99003 4.27273 6.19532 4.82305C5.46164 5.34268 4.75864 5.80133 3.4748 5.80133C2.52725 5.80133 1.9159 5.55676 1.3963 5.25122L1.06005 1.27736H12.4615Z" fill="black"/>
</svg>
