<svg width="10" height="25" viewBox="0 0 10 25" fill="none" xmlns="http://www.w3.org/2000/svg">
<path d="M9.2686 0.666181H0.330722C0.0578561 0.666181 0.0227327 0.71772 0.0327081 0.912653C0.0428914 1.10759 1.22416 23.8495 1.22416 23.8495C1.22416 24.4883 2.0598 24.666 4.79968 24.666C7.53935 24.666 8.37478 24.4632 8.37419 23.8402C8.37419 23.8402 9.5658 0.978357 9.5658 0.850141C9.56601 0.722128 9.54814 0.666016 9.26862 0.666016L9.2686 0.666181ZM8.95438 1.26199L7.78102 22.98C7.66193 23.0666 7.12951 23.1971 4.79965 23.1971C2.4725 23.1971 1.93862 23.0857 1.81892 22.9987L0.644973 1.26207L8.95438 1.26199ZM4.79965 24.0536C2.44861 24.0536 1.93048 23.8769 1.81951 23.7876L1.80641 23.5355C2.30747 23.6828 3.20838 23.7556 4.79964 23.7556C6.39154 23.7556 7.29241 23.6828 7.79346 23.538L7.78037 23.7869C7.67022 23.8763 7.1536 24.0536 4.79964 24.0536H4.79965Z" fill="black"/>
</svg>
