<?xml version="1.0" encoding="UTF-8" standalone="no"?>
<!-- Created with Inkscape (http://www.inkscape.org/) -->

<svg
   width="192mm"
   height="192mm"
   viewBox="0 0 192 192"
   version="1.1"
   id="svg457"
   xml:space="preserve"
   inkscape:version="1.2.1 (9c6d41e410, 2022-07-14)"
   sodipodi:docname="logo.svg"
   xmlns:inkscape="http://www.inkscape.org/namespaces/inkscape"
   xmlns:sodipodi="http://sodipodi.sourceforge.net/DTD/sodipodi-0.dtd"
   xmlns="http://www.w3.org/2000/svg"
   xmlns:svg="http://www.w3.org/2000/svg"><sodipodi:namedview
     id="namedview459"
     pagecolor="#505050"
     bordercolor="#eeeeee"
     borderopacity="1"
     inkscape:showpageshadow="0"
     inkscape:pageopacity="0"
     inkscape:pagecheckerboard="0"
     inkscape:deskcolor="#505050"
     inkscape:document-units="mm"
     showgrid="false"
     inkscape:zoom="0.51539741"
     inkscape:cx="385.13969"
     inkscape:cy="336.63344"
     inkscape:window-width="1920"
     inkscape:window-height="1001"
     inkscape:window-x="2391"
     inkscape:window-y="-9"
     inkscape:window-maximized="1"
     inkscape:current-layer="layer1" /><defs
     id="defs454"><linearGradient
       id="paint0_linear_3548_28609"
       x1="20.1999"
       y1="1.83717"
       x2="20.1999"
       y2="37.5625"
       gradientUnits="userSpaceOnUse"><stop
         stop-color="#E7512D"
         id="stop477" /><stop
         offset="1"
         stop-color="#FCE727"
         id="stop479" /></linearGradient><linearGradient
       id="paint1_linear_3548_28609"
       x1="21"
       y1="3.4372599"
       x2="21"
       y2="39.162601"
       gradientUnits="userSpaceOnUse"><stop
         stop-color="#219653"
         id="stop482" /><stop
         offset="1"
         stop-color="#5E74C2"
         id="stop484" /></linearGradient><linearGradient
       id="paint2_linear_3548_28609"
       x1="21.799999"
       y1="1.83717"
       x2="21.799999"
       y2="37.5625"
       gradientUnits="userSpaceOnUse"><stop
         stop-color="#FCE727"
         id="stop487" /><stop
         offset="1"
         stop-color="#B720CF"
         stop-opacity="0.18"
         id="stop489" /></linearGradient></defs><g
     inkscape:label="Layer 1"
     inkscape:groupmode="layer"
     id="layer1"><g
       style="fill:none"
       id="g515"
       transform="matrix(4.6377099,0,0,4.6377099,-1.9515015,0.67788178)"><path
         d="M 21.5,38 C 31.165,38 39,30.165 39,20.5 39,10.835 31.165,3 21.5,3 11.835,3 4,10.835 4,20.5 4,30.165 11.835,38 21.5,38 Z"
         stroke="#ffffff"
         stroke-opacity="0.8"
         stroke-width="5"
         id="path461" /><path
         d="M 20.2,8.5 C 30.3509,11.374 33,19.7 33,19.7 30.8174,9.40433 20.2,8.5 20.2,8.5 Z"
         fill="#ffffff"
         id="path463" /><path
         d="m 37.7999,19.6998 c 0,9.7203 -7.8799,17.6001 -17.6,17.6001 -9.7202,0 -17.60005,-7.8798 -17.60005,-17.6001 0,-9.72015 7.87985,-17.59995 17.60005,-17.59995 9.7201,0 17.6,7.8798 17.6,17.59995 z"
         stroke="url(#paint0_linear_3548_28609)"
         stroke-width="0.5"
         id="path465"
         style="stroke:url(#paint0_linear_3548_28609)" /><path
         d="M 37.8,21.3 C 37.8,31.0201 30.2783,38.9 21,38.9 11.7216,38.9 4.19995,31.0201 4.19995,21.3 4.19995,11.5797 11.7216,3.69995 21,3.69995 c 9.2783,0 16.8,7.87975 16.8,17.60005 z"
         stroke="url(#paint1_linear_3548_28609)"
         stroke-width="0.5"
         id="path467"
         style="stroke:url(#paint1_linear_3548_28609)" /><path
         d="m 39.4,19.6999 c 0,9.7201 -7.8799,17.6 -17.6,17.6 -9.7203,0 -17.60005,-7.8799 -17.60005,-17.6 0,-9.72025 7.87975,-17.60005 17.60005,-17.60005 9.7201,0 17.6,7.8798 17.6,17.60005 z"
         stroke="url(#paint2_linear_3548_28609)"
         stroke-width="0.5"
         id="path469"
         style="stroke:url(#paint2_linear_3548_28609)" /><path
         d="M 14,25.2886 V 16 h 3.705 v 1.4716 h -2.0689 v 2.3896 h 1.812 v 1.4716 h -1.812 v 2.4842 h 2.0689 v 1.4716 z m 8.0283,0 -0.311,-2.0387 h -1.5956 l -0.311,2.0387 H 18.2016 L 19.7295,16 h 2.4069 l 1.5415,9.2886 z M 20.96,17.6741 h -0.0811 l -0.595,4.1448 h 1.2711 z m 3.8509,7.6145 v -7.79 H 23.3641 V 16 h 4.5298 v 1.4986 H 26.447 v 7.79 z"
         fill="#ffffff"
         id="path471" /><path
         d="m 21.3,36.3001 c 8.5605,0 15.5,-6.9396 15.5,-15.5001 0,-8.5604 -6.9395,-15.49995 -15.5,-15.49995 -8.5604,0 -15.49995,6.93955 -15.49995,15.49995 0,8.5605 6.93955,15.5001 15.49995,15.5001 z"
         stroke="#000000"
         stroke-width="0.5"
         id="path473" /><path
         d="m 21,40.5 c 11.0457,0 20,-8.9543 20,-20 0,-11.04569 -8.9543,-20 -20,-20 -11.0457,0 -20,8.95431 -20,20 0,11.0457 8.9543,20 20,20 z"
         stroke="#000000"
         stroke-width="0.5"
         id="path475" /></g></g></svg>
