<svg width="25" height="30" viewBox="0 0 25 30" fill="none" xmlns="http://www.w3.org/2000/svg">
<path d="M12.4776 20.7355L12.3933 20.7445C11.7577 20.8136 11.2358 21.2635 11.0745 21.8821L9.45665 28.0783C9.24257 28.898 9.73372 29.7359 10.5534 29.9498C10.6834 29.9837 10.8138 30 10.9423 30C11.6232 30 12.2449 29.543 12.4251 28.8532L12.4781 28.6509V29.8981H14.3121V23.6221L17.8307 23.2408C18.7636 23.2508 19.7292 22.9236 20.2373 21.4112C20.9107 18.7508 20.9455 17.13 20.4434 14.5662C20.0678 12.704 18.6372 11.9401 17.5648 12.0609C17.1906 12.1032 16.8681 12.2997 16.6147 12.5907C17.3945 13.0813 18.1284 13.1991 18.1365 13.2003C18.8093 13.292 19.2808 13.9091 19.1923 14.5771C19.1121 15.185 18.5898 15.6435 17.9772 15.6435C17.9228 15.6435 17.8684 15.6397 17.8148 15.6326C17.5512 15.5941 16.8813 15.465 16.0472 15.071C16.1461 16.5743 16.3238 18.5685 16.0204 20.3512L14.3121 20.5362V18.6155H15.1588V17.2727L2.04322 17.2731V18.6159H2.89015V29.8983H4.72393V20.3404H12.478L12.4776 20.7355Z" fill="black"/>
<path d="M20.5408 8.11499C20.8865 9.59954 19.9635 11.0832 18.4787 11.4289C16.9941 11.7746 15.5105 10.8514 15.1648 9.36682C14.819 7.88249 15.7423 6.39858 17.2269 6.05288C18.7114 5.70717 20.1951 6.63045 20.5408 8.11499Z" fill="black"/>
<path d="M17.9768 15.3986C18.4617 15.3986 18.8834 15.0391 18.9487 14.5454C19.0196 14.0093 18.6436 13.5175 18.1085 13.4442C18.108 13.444 18.1068 13.444 18.1041 13.4436V13.4438C18.0279 13.434 17.2603 13.2915 16.4643 12.7863C16.35 12.7137 16.2351 12.634 16.1215 12.5459C15.655 12.1857 15.2045 11.6994 14.8598 11.0096C14.5164 10.319 14.2724 9.41477 14.2716 8.18743C14.2716 7.8051 14.2956 7.39199 14.3488 6.94626C14.413 6.40802 14.0286 5.91939 13.4904 5.85515C12.9522 5.79092 12.4637 6.17533 12.3997 6.71376C12.3378 7.23212 12.3085 7.72285 12.3085 8.18764C12.3072 9.72576 12.6337 10.9847 13.1508 11.9798C13.9177 13.4604 15.0765 14.3181 16.0261 14.7892C16.0374 14.7946 16.049 14.8009 16.06 14.8065C17.0204 15.2768 17.7756 15.3797 17.847 15.3904C17.8905 15.3956 17.934 15.3985 17.9769 15.3985L17.9768 15.3986Z" fill="black"/>
<path d="M22.9076 13.244C22.2426 16.73 21.9823 20.2727 22.1229 23.8037H15.8485V25.1534H16.1348V29.8978H17.4845V28.1799H22.5055C22.5829 28.7537 22.6685 29.3265 22.7673 29.8978H24.1382C23.1702 24.4719 23.1998 18.9138 24.233 13.4971C23.7915 13.4128 23.3495 13.3284 22.9075 13.2441L22.9076 13.244ZM17.485 27.4439V25.1535H22.1982C22.2509 25.9181 22.3223 26.6818 22.4127 27.4437L17.485 27.4439Z" fill="black"/>
<path d="M6.09393 16.8585H10.4293V17.1653H6.09393V16.8585Z" fill="black"/>
<path d="M10.4906 10.3682C9.2637 9.32519 9.59161 7.88629 10.1135 7.42171C10.9979 6.63468 11.5336 5.60528 11.5336 4.47855C11.5336 2.00522 8.95169 0 5.76707 0C2.58203 0 0 2.00522 0 4.47855C0 6.95188 2.58192 8.9571 5.76707 8.9571C6.64518 8.9571 9.7459 10.6409 10.4909 10.3682H10.4906Z" fill="black"/>
</svg>
