<svg width="36" height="27" viewBox="0 0 36 27" fill="none" xmlns="http://www.w3.org/2000/svg">
<path d="M28.3501 3.46325C28.3177 3.46325 28.3177 3.46325 28.3501 3.46325C28.3177 3.46325 28.3177 3.46325 28.3501 3.46325C28.3177 3.46325 28.3177 3.46325 28.3501 3.46325C28.3177 3.46325 28.3177 3.46325 28.3501 3.46325C28.3177 3.46325 28.3177 3.46325 28.3501 3.46325C28.3177 3.46325 28.3177 3.46325 28.3501 3.46325C28.3177 3.46325 28.3177 3.46325 28.3501 3.46325C28.3177 3.46325 28.3177 3.46325 28.3501 3.46325C28.3177 3.46325 28.3177 3.46325 28.3501 3.46325C28.3177 3.46325 28.3177 3.46325 28.3501 3.46325C28.3177 3.46325 28.3177 3.46325 28.3501 3.46325C28.3177 3.46325 28.3177 3.46325 28.3501 3.46325C28.3177 3.46325 28.3177 3.46325 28.3501 3.46325H28.3177H28.2853C28.1883 3.46325 28.1235 3.50395 28.0263 3.50395L28.1557 4.31709C28.3823 4.27639 28.6089 4.23569 28.8352 4.23569L28.8357 3.46329L28.3501 3.46325ZM26.7644 3.86968C26.5378 3.9915 26.3112 4.15429 26.117 4.31681L26.5054 4.96715C26.6996 4.80463 26.8938 4.64185 27.088 4.56072L26.7644 3.86968ZM25.4698 5.04852C25.3404 5.21104 25.2433 5.37382 25.1463 5.57704C25.1139 5.61773 25.0815 5.69886 25.0493 5.73956L25.5995 6.14599C25.7289 5.90208 25.8585 5.65816 26.0202 5.45493L25.4698 5.04852ZM24.6283 6.75587C24.5313 7.08117 24.4665 7.40621 24.4341 7.73149L25.0815 7.85331C25.1139 7.5687 25.1785 7.2841 25.2433 7.04017L24.6283 6.75587ZM25.0815 8.7069L24.4341 8.7883C24.4341 9.03221 24.4665 9.27612 24.5311 9.52003C24.5311 9.56072 24.5635 9.64185 24.5635 9.68255L25.1784 9.43864C25.1138 9.27612 25.0814 8.99151 25.0814 8.70691L25.0815 8.7069ZM25.4374 10.3332L24.8549 10.6989C24.9197 10.8614 24.9843 10.9835 25.0815 11.146C25.1463 11.2274 25.1785 11.3086 25.2433 11.3899L25.7286 10.8614C25.664 10.8207 25.5344 10.5768 25.4374 10.3332V10.3332ZM26.3112 11.6339L25.9228 12.2842L25.9552 12.3249V12.3656C25.9552 12.447 25.9228 12.5281 25.8582 12.5281C25.8258 12.5281 25.7934 12.5281 25.7613 12.5688H25.7289L25.8907 13.3412C25.9231 13.3412 25.9876 13.3005 26.02 13.3005C26.3436 13.2192 26.5702 12.8941 26.635 12.4874C26.6998 12.0403 26.5702 11.5931 26.279 11.3492C26.376 11.7152 26.3436 11.6745 26.3112 11.6338L26.3112 11.6339ZM25.2433 13.2192C25.0167 13.341 24.8225 13.4631 24.5959 13.5849C24.7577 13.7881 24.9195 13.9913 25.0813 14.1945C25.1461 14.1539 25.2431 14.1132 25.3079 14.0727L25.0813 13.4224L25.2433 13.2192ZM25.8582 13.9916L25.3729 14.5201C25.4377 14.6015 25.4698 14.6826 25.5346 14.764C25.567 14.8047 25.5994 14.8858 25.6316 14.9265L25.664 14.9672L26.1818 14.4794C26.2466 14.5605 26.0524 14.2762 25.8582 13.9916L25.8582 13.9916ZM26.8938 15.7394L26.3436 16.1458C26.4084 16.2676 26.4406 16.3897 26.5054 16.4711C26.5378 16.5118 26.5378 16.5525 26.5702 16.5929L27.1528 16.2272C27.1852 16.39 27.0232 16.0647 26.8938 15.7394L26.8938 15.7394ZM27.6705 17.6907L27.088 18.016V18.0567C27.1204 18.1785 27.185 18.3413 27.2174 18.4631C27.2498 18.5445 27.2498 18.6256 27.2822 18.707L27.8971 18.4224C27.8647 18.341 27.7675 18.016 27.6705 17.6907L27.6705 17.6907ZM28.2207 19.6827L27.6058 19.9263C27.6382 20.0077 27.6382 20.0888 27.6706 20.1702C27.703 20.3734 27.7676 20.5766 27.8 20.7799L28.4149 20.6173C28.3501 20.3737 28.2855 20.0077 28.2207 19.6827H28.2207ZM28.5767 21.7558L27.9293 21.9183C27.9617 22.2436 28.0263 22.5686 28.0587 22.9346L28.7061 22.8128C28.6739 22.4468 28.6415 22.0808 28.5767 21.7558V21.7558ZM28.9327 23.1378H28.2207H28.1883V23.8696V23.1378V23.8696V23.9103H28.2207H28.8357L28.9327 23.1378ZM30.5186 23.0971C30.2596 23.0971 30.0008 23.1378 29.7094 23.1378V23.951H29.9036C30.0978 23.951 30.292 23.951 30.4862 23.9103L30.5186 23.0971ZM32.1367 23.0157C31.8777 23.0157 31.619 23.0564 31.3276 23.0564L31.36 23.8696C31.5218 23.8696 31.6512 23.8696 31.8131 23.8289H32.0397L32.1367 23.0157ZM33.7549 22.8532C33.4959 22.8939 33.2371 22.8939 32.9457 22.9346L32.9781 23.7478C33.2047 23.7478 33.4313 23.7071 33.6255 23.7071H33.7873L33.7549 22.8532ZM35.1466 22.7311C34.9848 22.7311 34.7906 22.7718 34.5641 22.7718L34.6289 23.585C34.7258 23.585 34.7906 23.585 34.8878 23.5443C35.0172 23.5443 35.1144 23.5443 35.179 23.5036L35.1466 23.0158L35.1466 22.7311ZM35.1466 23.0564L35.179 23.5443L35.1466 23.0564ZM35.4378 21.5118L34.7904 21.5932C34.7904 21.6746 34.8228 21.7964 34.8228 21.9185L34.8876 22.6096L35.535 22.5282L35.4702 21.8779V21.6746C35.4378 21.5526 35.4378 21.5526 35.4378 21.5119V21.5118ZM35.179 19.4791L34.5316 19.6416C34.5964 19.9263 34.6286 20.2513 34.6934 20.5766L35.3408 20.4548C35.3084 20.2922 35.3084 20.1702 35.276 20.0076C35.2112 19.7637 35.2112 19.6419 35.179 19.4791ZM34.6934 17.5688L34.0785 17.8534C34.1755 18.138 34.2403 18.4226 34.3375 18.7477L34.9524 18.5038C34.8876 18.2599 34.8554 18.0567 34.7906 17.8535C34.7582 17.6907 34.7258 17.6093 34.6934 17.5689V17.5688ZM33.9491 15.7801L33.4313 16.2272C33.5607 16.4711 33.6903 16.715 33.8197 16.9996L34.4023 16.6339C34.4023 16.5932 34.3699 16.5932 34.3699 16.5525C34.1757 16.1865 34.0787 15.9833 33.9491 15.7801L33.9491 15.7801ZM32.8488 14.2761L32.428 14.9265C32.6222 15.1297 32.784 15.3329 32.9457 15.5361L33.4311 14.9669C33.2695 14.7233 33.0429 14.4794 32.8488 14.2761L32.8488 14.2761ZM31.4572 13.2598L31.2306 13.9915C31.4572 14.1133 31.6838 14.2354 31.878 14.3979L32.2016 13.7069C32.1692 13.6662 32.1046 13.6255 32.0722 13.6255C31.5542 13.3004 31.5218 13.3004 31.4573 13.2597L31.4572 13.2598ZM30.4215 11.5931C30.3567 11.6745 30.2921 11.7149 30.2273 11.7963C29.9683 12.0402 29.8065 12.4467 29.8713 12.8531C29.9361 13.2595 30.1625 13.5848 30.4863 13.6662H30.5511L30.7129 12.8938H30.6481C30.5833 12.8531 30.5511 12.8124 30.5511 12.7313V12.6906C30.5511 12.6499 30.5511 12.6092 30.5835 12.5688C30.6159 12.5281 30.6805 12.4874 30.7129 12.447L30.4215 11.5931ZM31.2631 10.2924C31.1661 10.5363 31.0365 10.7802 30.9071 10.9835L31.3924 11.512C31.5218 11.3088 31.619 11.1462 31.716 10.9023C31.7484 10.8616 31.7484 10.8209 31.7808 10.7805L31.2631 10.2924ZM31.619 8.66638C31.619 8.95099 31.5542 9.23559 31.522 9.51992L32.137 9.72314C32.1694 9.56062 32.2018 9.43854 32.234 9.27601C32.234 9.15419 32.2664 9.03211 32.2664 8.91028L31.619 8.66638ZM32.0396 6.71508L31.4247 6.99968C31.4895 7.28429 31.554 7.5282 31.5864 7.81282L32.2338 7.691V7.6503V7.60961V7.56891C32.072 6.83691 32.072 6.79651 32.0396 6.7151L32.0396 6.71508ZM31.1983 5.00773L30.7129 5.57694C30.8747 5.78016 31.0041 6.02406 31.1337 6.268L31.6839 5.82087C31.6191 5.65835 31.5221 5.49557 31.4249 5.37375C31.4249 5.37375 31.4249 5.33305 31.3925 5.33305V5.29236C31.2307 5.04845 31.2307 5.04845 31.1983 5.00775C31.2307 5.04845 31.2307 5.04845 31.1983 5.00775C31.2307 5.04845 31.2307 5.04845 31.1983 5.00775C31.2307 5.04845 31.2307 5.04845 31.1983 5.00775C31.2307 5.04845 31.2307 5.04845 31.1983 5.00775C31.2307 5.04845 31.2307 5.04845 31.1983 5.00775C31.2307 5.04845 31.1983 5.00775 31.1983 5.00775L31.1983 5.00773ZM29.8713 3.86956L29.6125 4.60129C29.8067 4.72312 30.0333 4.8452 30.1951 5.00772L30.5511 4.35738C30.3569 4.19486 30.1627 4.03208 29.9685 3.91025H29.9361C29.9037 3.86956 29.9037 3.86956 29.8713 3.86956L29.8713 3.86956ZM28.3502 3.46313V4.27627C28.5768 4.27627 28.771 4.31697 28.9976 4.35767L29.127 3.54453C28.9652 3.50383 28.771 3.46313 28.5768 3.46313H28.5444H28.3502C28.3826 3.46313 28.3826 3.46313 28.3502 3.46313C28.3826 3.46313 28.3826 3.46313 28.3502 3.46313C28.3826 3.46313 28.3826 3.46313 28.3502 3.46313C28.3826 3.46313 28.3826 3.46313 28.3502 3.46313C28.3826 3.46313 28.3826 3.46313 28.3502 3.46313C28.3826 3.46313 28.3826 3.46313 28.3502 3.46313H28.3502Z" fill="#979797"/>
<path d="M7.18485 3.46326C7.18485 3.46326 7.15245 3.46326 7.18485 3.46326C7.15245 3.46326 7.15245 3.46326 7.18485 3.46326C7.15245 3.46326 7.15245 3.46326 7.18485 3.46326C7.15245 3.46326 7.15245 3.46326 7.18485 3.46326C7.15245 3.46326 7.15245 3.46326 7.18485 3.46326C7.15245 3.46326 7.15245 3.46326 7.18485 3.46326H7.15245H7.12005C7.02306 3.46326 6.95826 3.50395 6.86106 3.50395L6.99045 4.31709C7.21704 4.27639 7.44363 4.2357 7.67 4.2357L7.67021 3.46329L7.18485 3.46326ZM5.63131 3.86969C5.43713 3.99151 5.27533 4.0729 5.11354 4.23542C5.11354 4.23542 5.08114 4.23542 5.08114 4.27612C5.08114 4.27612 5.04874 4.27612 5.04874 4.31681H5.01634H4.98394L5.37232 4.96716C5.56651 4.80464 5.7607 4.64186 5.95489 4.56073L5.63131 3.86969ZM4.30459 5.04852C4.2076 5.17035 4.1428 5.29243 4.0456 5.41426V5.45496C3.9808 5.53635 3.94861 5.65817 3.88381 5.73956L4.434 6.14599C4.56339 5.90208 4.69299 5.65817 4.85478 5.45493L4.30459 5.04852ZM3.49542 6.75587C3.49542 6.79657 3.46302 6.79657 3.49542 6.75587C3.46302 6.79657 3.46302 6.79657 3.49542 6.75587C3.46302 6.79657 3.46302 6.79657 3.49542 6.75587C3.46302 6.79657 3.46302 6.79657 3.49542 6.75587C3.46302 6.79657 3.46302 6.79657 3.49542 6.75587C3.46302 6.79657 3.46302 6.79657 3.49542 6.75587C3.46302 6.79657 3.46302 6.79657 3.49542 6.75587C3.46302 6.79657 3.46302 6.79657 3.49542 6.75587C3.46302 6.79657 3.46302 6.79657 3.49542 6.75587C3.46302 6.79657 3.46302 6.79657 3.49542 6.75587C3.46302 6.79657 3.46302 6.79657 3.49542 6.75587C3.46302 6.79657 3.46302 6.79657 3.49542 6.75587C3.46302 6.79657 3.46302 6.79657 3.49542 6.75587C3.46302 6.79657 3.46302 6.79657 3.49542 6.75587C3.46302 6.79657 3.46302 6.79657 3.49542 6.75587C3.49542 6.79657 3.49542 6.79657 3.46302 6.83726C3.39822 7.12187 3.33363 7.40647 3.30123 7.73154L3.94861 7.85337C3.98101 7.56876 4.0456 7.28416 4.1104 7.04023L3.49542 6.75587ZM3.9162 8.70691L3.26882 8.7883C3.30122 9.1136 3.33362 9.47936 3.39821 9.80466L4.01316 9.56075C3.98076 9.27614 3.94836 8.99154 3.91617 8.70694L3.9162 8.70691ZM4.30458 10.3332L3.72201 10.6989C3.85141 10.9835 4.0132 11.2681 4.17519 11.5525L4.66056 11.0239C4.53097 10.8207 4.40157 10.5768 4.30458 10.3331V10.3332ZM5.14593 11.6339L4.75754 12.2842C4.78994 12.3249 4.82235 12.3656 4.85454 12.3656C4.91934 12.447 4.95153 12.5688 4.91934 12.6909C4.91934 12.7316 4.88694 12.7723 4.85454 12.8128C4.82213 12.8128 4.78973 12.8535 4.75754 12.8535L4.91934 13.6259L5.01633 13.5852C5.33991 13.4633 5.56652 13.1787 5.63128 12.772C5.69608 12.3656 5.56647 11.9185 5.2753 11.7153C5.2753 11.7153 5.21071 11.6746 5.14591 11.6339L5.14593 11.6339ZM4.0456 13.2599C3.94861 13.3006 3.85141 13.3817 3.75442 13.4224H3.72201H3.68962C3.65722 13.4224 3.65721 13.4631 3.62481 13.4631C3.59241 13.4631 3.59241 13.5038 3.56001 13.5038H3.52761L3.85119 14.1949C4.04538 14.0324 4.27197 13.9103 4.49857 13.7884L4.0456 13.2599ZM2.65385 14.3167C2.55686 14.3981 2.49206 14.4792 2.39486 14.6013L2.20068 14.8452L2.68605 15.3737C2.84784 15.1705 3.00963 14.9266 3.20382 14.764L2.65385 14.3167ZM1.55353 15.8208C1.42413 16.1054 1.26234 16.3493 1.13274 16.6743L1.71531 17.0401C1.84491 16.7964 1.9743 16.5118 2.1037 16.2679L1.55353 15.8208ZM0.809164 17.6093C0.744362 17.8125 0.679772 18.0157 0.614975 18.2596C0.614975 18.3003 0.582575 18.341 0.582575 18.3814L1.19753 18.6254C1.26233 18.3001 1.35932 18.0157 1.45652 17.7311L0.809164 17.6093ZM0.356192 19.5606C0.323793 19.6013 0.323793 19.6013 0.356192 19.5606V19.6013V19.642C0.323793 19.7638 0.323793 19.8859 0.29139 20.0077C0.29139 20.0891 0.258991 20.2109 0.258991 20.2923L0.906374 20.4141C0.938774 20.0888 1.00336 19.7638 1.03577 19.4792L0.356192 19.5606ZM0.0972021 21.5526C0.0972021 21.634 0.097202 21.7151 0.0648021 21.8372L0 22.5689L0.647383 22.6503L0.712185 21.9186C0.712185 21.8372 0.712185 21.756 0.744585 21.6747L0.0972021 21.5526ZM0.388593 22.7311V23.0157L0.194405 23.4629C0.226805 23.5036 0.291396 23.5036 0.356198 23.5036H0.582787C0.712178 23.5849 0.84157 23.5849 0.970961 23.5849L1.03576 22.7718C0.776773 22.7718 0.550391 22.7311 0.388593 22.7311V22.7311ZM1.84494 22.8532L1.78014 23.6663C1.97432 23.6663 2.20092 23.707 2.39509 23.707H2.55688L2.58928 22.8939C2.36269 22.9346 2.07151 22.8939 1.84492 22.8532H1.84494ZM3.43064 23.0157L3.39824 23.8289H3.62483H3.91602H4.07781L4.11021 23.0157C3.94842 23.0564 3.68963 23.0157 3.43066 23.0157H3.43064ZM5.04899 23.0971L5.01659 23.9103H5.43738H5.79336V23.0971C5.56677 23.1378 5.30778 23.0971 5.049 23.0971H5.04899ZM6.6347 23.1378V23.951H6.92588H6.95828H7.05527H7.08767H7.12007V23.9103V23.8696V23.2192V23.8696V23.2192C7.08788 23.1378 6.86129 23.1378 6.6347 23.1378L6.6347 23.1378ZM6.92588 21.6337C6.86108 21.959 6.82889 22.3247 6.79649 22.65L7.44387 22.7719C7.47627 22.4466 7.54086 22.0808 7.57327 21.7555L6.92588 21.6337ZM7.31426 19.6012C7.24946 19.9265 7.18487 20.2923 7.12008 20.6176L7.73503 20.8208C7.79983 20.4955 7.86442 20.2112 7.92921 19.9265L7.31426 19.6012ZM7.86446 17.5688C7.76746 17.8941 7.67027 18.2191 7.57327 18.5852L8.18822 18.8291C8.18822 18.7884 8.22062 18.7072 8.22062 18.6665V18.6259C8.22062 18.5852 8.22062 18.5852 8.25302 18.5445C8.28542 18.4226 8.31782 18.3412 8.35001 18.2192L7.86446 17.5688ZM8.6412 15.6582C8.51181 15.9428 8.35001 16.2679 8.22042 16.5932L8.80299 16.9589C8.80299 16.9589 8.80298 16.9182 8.83538 16.9182L8.6412 15.6582ZM9.64454 13.9102C9.45036 14.1948 9.25616 14.4794 9.09435 14.7637L9.61213 15.2515C9.61213 15.2108 9.64453 15.2108 9.64453 15.1701L9.67693 15.1294C9.67693 15.1294 9.67693 15.0887 9.70933 15.0887C9.74173 15.0073 9.80632 14.9669 9.83872 14.8855L9.64454 13.9102ZM10.3241 13.2191L10.0975 13.9915C10.1945 14.0322 10.2917 14.0729 10.3887 14.154L10.8741 13.5444C10.6801 13.4223 10.5183 13.3005 10.3241 13.2191L10.3241 13.2191ZM9.32096 11.5524C9.25616 11.6338 9.19157 11.6742 9.12677 11.7556C8.83559 11.9995 8.70599 12.4467 8.77079 12.8938C8.83559 13.3002 9.06197 13.6255 9.38574 13.7069H9.41814L9.57993 12.9345H9.54753C9.48273 12.8938 9.45054 12.8531 9.45054 12.772V12.7313C9.48294 12.6906 9.51534 12.6906 9.51534 12.6499C9.54774 12.6092 9.61233 12.5685 9.64474 12.5281L9.32096 11.5524ZM10.1299 10.211C10.0329 10.4549 9.90333 10.6989 9.77394 10.9428L10.2917 11.4306C10.3565 11.3492 10.4211 11.2274 10.4535 11.146C10.5183 10.9835 10.6153 10.8207 10.6801 10.6582L10.1299 10.211ZM10.4859 8.58502C10.4859 8.86963 10.4535 9.15423 10.3889 9.43856L11.0039 9.64178C11.0687 9.35717 11.1009 9.07257 11.1009 8.7475L10.4859 8.58502ZM10.8743 6.63372L10.2595 6.91832C10.3244 7.16223 10.3889 7.44684 10.4213 7.73146L11.0687 7.60964C11.0361 7.28433 10.9715 6.95903 10.8743 6.63375L10.8743 6.63372ZM10.0005 4.92664L9.54733 5.49585C9.70912 5.69906 9.83852 5.90227 9.96811 6.14619L10.5183 5.69906C10.4535 5.57724 10.3889 5.45515 10.3241 5.33332C10.3241 5.33332 10.3241 5.29263 10.2917 5.29263L10.2593 5.25193C10.0653 5.04846 10.0329 5.00776 10.0005 4.92663L10.0005 4.92664ZM8.6412 3.82887L8.41461 4.60127C8.6088 4.7231 8.83539 4.84518 8.99718 5.0077L9.35316 4.31664C9.35316 4.31664 9.32076 4.31664 9.32076 4.27595C9.32076 4.27595 9.28836 4.27595 9.28836 4.23525C9.19137 4.15386 9.12657 4.11343 9.02937 4.07273C9.02937 4.07273 8.99697 4.07273 8.99697 4.03204C8.99697 4.03204 8.96457 4.03204 8.96457 3.99134H8.93217H8.89977C8.706 3.82882 8.6736 3.82882 8.64119 3.82882L8.6412 3.82887ZM7.18485 3.46313V4.27627C7.37904 4.27627 7.57323 4.31697 7.76742 4.35767L7.86441 3.54453C7.70262 3.50383 7.54083 3.50383 7.37904 3.46313H7.34664H7.18485C7.21725 3.46313 7.21725 3.46313 7.18485 3.46313C7.21725 3.46313 7.21725 3.46313 7.18485 3.46313C7.21725 3.46313 7.21725 3.46313 7.18485 3.46313C7.21725 3.46313 7.21725 3.46313 7.18485 3.46313C7.21725 3.46313 7.21725 3.46313 7.18485 3.46313C7.21725 3.46313 7.21725 3.46313 7.18485 3.46313C7.21725 3.46313 7.21725 3.46313 7.18485 3.46313C7.21725 3.46313 7.21725 3.46313 7.18485 3.46313C7.21725 3.46313 7.21725 3.46313 7.18485 3.46313C7.21725 3.46313 7.21725 3.46313 7.18485 3.46313C7.21725 3.46313 7.21725 3.46313 7.18485 3.46313C7.21725 3.46313 7.21725 3.46313 7.18485 3.46313C7.21725 3.46313 7.21725 3.46313 7.18485 3.46313C7.21725 3.46313 7.21725 3.46313 7.18485 3.46313C7.21725 3.46313 7.21725 3.46313 7.18485 3.46313H7.18485Z" fill="#979797"/>
<path d="M27.0238 24.2357C26.4736 17.0814 24.1112 13.7483 20.7451 12.6504C20.5509 12.569 20.5185 12.2032 20.6803 12.0407C22.0072 10.8619 22.881 8.95125 22.881 6.75632C22.881 3.21975 20.5831 0.333496 17.7674 0.333496C14.9518 0.333496 12.6539 3.21975 12.6539 6.75632C12.6539 8.87011 13.4952 10.7807 14.7576 11.9189C14.9518 12.0814 14.9518 12.5286 14.7252 12.61C11.4241 13.6667 9.09406 16.8783 8.4789 24.1953L8.38191 25.4149C8.38191 25.4149 8.3171 26.4312 9.02929 26.4716C12.1037 26.6342 15.0166 27.0002 17.6378 27.0002C22.007 27.0002 25.3728 26.553 26.667 26.4716C27.2819 26.4309 27.1847 25.4553 27.1847 25.4553L27.0238 24.2357ZM14.2404 6.79692C14.2404 4.35784 15.8261 2.36607 17.7681 2.36607C19.71 2.36607 21.2957 4.35777 21.2957 6.79692C21.2957 9.23607 19.71 11.2278 17.7681 11.2278C15.8264 11.2278 14.2404 9.2358 14.2404 6.79692ZM14.0138 24.6825C14.2404 22.5687 14.4346 21.4305 14.4022 21.7962C14.4346 21.5116 14.3052 21.2677 14.0786 21.1866C13.8521 21.1459 13.6579 21.3084 13.5933 21.593C13.4639 22.4061 13.3343 23.4222 13.1725 24.6417C13.1401 24.9263 12.9459 25.1703 12.6871 25.1703C11.9104 25.0889 11.1336 25.0484 10.3571 24.967C10.0011 24.9263 10.0981 24.4385 10.0981 24.4385C10.713 20.4955 11.2632 17.8125 12.6871 16.227C13.8523 14.8856 15.4704 14.2757 17.7682 14.2757C20.0013 14.2757 21.6842 14.9668 22.8818 16.3488C24.2735 17.9748 24.8883 20.7797 25.4385 24.4789C25.4385 24.4789 25.5355 24.9667 25.1473 25.0074C24.4999 25.0888 23.6909 25.1699 22.7524 25.2106C22.5258 25.2106 22.3964 24.8853 22.364 24.7228C22.267 23.8692 22.1374 23.0968 21.9108 21.7147C21.8784 21.4301 21.6519 21.2676 21.4255 21.3083C21.1989 21.349 21.0695 21.6336 21.1019 21.9179C21.0371 21.5115 21.1989 22.7311 21.4255 24.8042C21.4579 24.9667 21.3931 25.3327 21.1019 25.3327C19.16 25.4141 16.8299 25.4545 14.3059 25.3327C14.0141 25.2109 14.0141 24.8449 14.0141 24.6824L14.0138 24.6825Z" fill="#979797"/>
</svg>
