<svg width="36" height="20" viewBox="0 0 36 20" fill="none" xmlns="http://www.w3.org/2000/svg">
<path d="M28.8156 2.34726C28.7832 2.34726 28.7832 2.34726 28.8156 2.34726C28.7832 2.34726 28.7832 2.34726 28.8156 2.34726C28.7832 2.34726 28.7832 2.34726 28.8156 2.34726C28.7832 2.34726 28.7832 2.34726 28.8156 2.34726C28.7832 2.34726 28.7832 2.34726 28.8156 2.34726C28.7832 2.34726 28.7832 2.34726 28.8156 2.34726C28.7832 2.34726 28.7832 2.34726 28.8156 2.34726C28.7832 2.34726 28.7832 2.34726 28.8156 2.34726C28.7832 2.34726 28.7832 2.34726 28.8156 2.34726C28.7832 2.34726 28.7832 2.34726 28.8156 2.34726C28.7832 2.34726 28.7832 2.34726 28.8156 2.34726C28.7832 2.34726 28.7832 2.34726 28.8156 2.34726C28.7832 2.34726 28.7832 2.34726 28.8156 2.34726H28.7832H28.7509C28.6542 2.34726 28.5895 2.37778 28.4925 2.37778L28.6216 2.98763C28.8477 2.95711 29.0737 2.92659 29.2995 2.92659L29.2999 2.34728L28.8156 2.34726ZM27.2337 2.65208C27.0076 2.74345 26.7816 2.86553 26.5879 2.98742L26.9753 3.47518C27.169 3.35329 27.3627 3.2312 27.5565 3.17036L27.2337 2.65208ZM25.9423 3.53621C25.8132 3.6581 25.7162 3.78018 25.6195 3.93259C25.5871 3.96312 25.5548 4.02396 25.5227 4.05449L26.0716 4.35931C26.2006 4.17638 26.3299 3.99344 26.4913 3.84101L25.9423 3.53621ZM25.1027 4.81672C25.006 5.06069 24.9413 5.30447 24.909 5.54843L25.5548 5.6398C25.5872 5.42634 25.6516 5.21289 25.7162 5.02994L25.1027 4.81672ZM25.5548 6.27999L24.909 6.34104C24.909 6.52397 24.9413 6.70691 25.0058 6.88984C25.0058 6.92036 25.0381 6.98121 25.0381 7.01173L25.6515 6.8288C25.5871 6.70691 25.5548 6.49345 25.5548 6.28L25.5548 6.27999ZM25.9099 7.4997L25.3288 7.774C25.3934 7.8959 25.4579 7.98746 25.5548 8.10935C25.6195 8.17039 25.6516 8.23124 25.7162 8.29228L26.2004 7.89589C26.136 7.86537 26.0067 7.68244 25.9099 7.4997V7.4997ZM26.7816 8.47524L26.3942 8.96299L26.4265 8.99351V9.02404C26.4265 9.08508 26.3942 9.14593 26.3297 9.14593C26.2974 9.14593 26.2651 9.14593 26.233 9.17645H26.2006L26.362 9.75575C26.3944 9.75575 26.4588 9.72523 26.4911 9.72523C26.8139 9.66418 27.04 9.42041 27.1046 9.11537C27.1692 8.78003 27.0399 8.44467 26.7495 8.26175C26.8462 8.53625 26.8139 8.50573 26.7816 8.4752L26.7816 8.47524ZM25.7162 9.66419C25.4902 9.75556 25.2965 9.84712 25.0704 9.93849C25.2318 10.0909 25.3932 10.2433 25.5546 10.3957C25.6193 10.3652 25.716 10.3347 25.7807 10.3044L25.5546 9.8166L25.7162 9.66419ZM26.3297 10.2435L25.8455 10.6399C25.9101 10.7009 25.9423 10.7618 26.0069 10.8228C26.0392 10.8533 26.0715 10.9142 26.1037 10.9447L26.136 10.9752L26.6525 10.6094C26.7171 10.6702 26.5234 10.4569 26.3297 10.2435L26.3297 10.2435ZM27.3628 11.5544L26.8139 11.8592C26.8785 11.9505 26.9107 12.0421 26.9753 12.1032C27.0076 12.1337 27.0076 12.1642 27.0399 12.1945L27.6211 11.9202C27.6534 12.0423 27.4918 11.7983 27.3627 11.5543L27.3628 11.5544ZM28.1376 13.0178L27.5565 13.2618V13.2923C27.5888 13.3837 27.6532 13.5058 27.6855 13.5972C27.7179 13.6582 27.7179 13.719 27.7502 13.7801L28.3637 13.5666C28.3313 13.5056 28.2344 13.2618 28.1376 13.0178L28.1376 13.0178ZM28.6865 14.5118L28.073 14.6945C28.1053 14.7556 28.1053 14.8164 28.1377 14.8775C28.17 15.0299 28.2344 15.1823 28.2668 15.3347L28.8802 15.2128C28.8156 15.0301 28.7511 14.7556 28.6865 14.5118H28.6865ZM29.0416 16.0666L28.3958 16.1885C28.4281 16.4325 28.4925 16.6763 28.5249 16.9508L29.1707 16.8594C29.1386 16.5849 29.1063 16.3104 29.0416 16.0667V16.0666ZM29.3967 17.1032H28.6865H28.6541V17.652V17.1032V17.652V17.6825H28.6865H29.2999L29.3967 17.1032ZM30.9788 17.0727C30.7205 17.0727 30.4623 17.1032 30.1716 17.1032V17.713H30.3653C30.559 17.713 30.7528 17.713 30.9465 17.6825L30.9788 17.0727ZM32.593 17.0116C32.3347 17.0116 32.0765 17.0421 31.7858 17.0421L31.8181 17.652C31.9796 17.652 32.1086 17.652 32.2702 17.6215H32.4963L32.593 17.0116ZM34.2073 16.8897C33.9489 16.9203 33.6908 16.9203 33.4001 16.9508L33.4324 17.5606C33.6584 17.5606 33.8845 17.5301 34.0782 17.5301H34.2396L34.2073 16.8897ZM35.5957 16.7982C35.4343 16.7982 35.2405 16.8287 35.0145 16.8287L35.0791 17.4385C35.1759 17.4385 35.2405 17.4385 35.3375 17.408C35.4666 17.408 35.5635 17.408 35.628 17.3775L35.5957 17.0116L35.5957 16.7982ZM35.5957 17.0421L35.628 17.408L35.5957 17.0421ZM35.8861 15.8837L35.2403 15.9447C35.2403 16.0058 35.2726 16.0972 35.2726 16.1887L35.3373 16.707L35.9831 16.646L35.9185 16.1582V16.0058C35.8861 15.9142 35.8861 15.9142 35.8861 15.8837V15.8837ZM35.628 14.3592L34.9822 14.4811C35.0468 14.6945 35.0789 14.9383 35.1436 15.1823L35.7894 15.0909C35.7571 14.969 35.7571 14.8774 35.7247 14.7555C35.6601 14.5726 35.6601 14.4812 35.628 14.3592ZM35.1436 12.9264L34.5301 13.1399C34.6269 13.3533 34.6915 13.5668 34.7885 13.8106L35.4019 13.6277C35.3373 13.4447 35.3052 13.2923 35.2405 13.1399C35.2082 13.0178 35.1759 12.9568 35.1436 12.9265V12.9264ZM34.401 11.5849L33.8845 11.9202C34.0136 12.1031 34.1429 12.2861 34.2719 12.4995L34.8531 12.2252C34.8531 12.1947 34.8208 12.1947 34.8208 12.1642C34.6271 11.8897 34.5303 11.7373 34.401 11.5849L34.401 11.5849ZM33.3033 10.4569L32.8836 10.9447C33.0773 11.0971 33.2387 11.2495 33.4001 11.4019L33.8843 10.975C33.7231 10.7923 33.4971 10.6093 33.3033 10.4569L33.3033 10.4569ZM31.9152 9.69465L31.6891 10.2435C31.9152 10.3348 32.1412 10.4264 32.3349 10.5483L32.6577 10.03C32.6254 9.99946 32.561 9.96893 32.5287 9.96893C32.0119 9.72515 31.9796 9.72515 31.9152 9.69463L31.9152 9.69465ZM30.8819 8.44464C30.8173 8.50569 30.7529 8.53601 30.6882 8.59706C30.4299 8.77999 30.2685 9.08482 30.3331 9.38963C30.3978 9.69445 30.6236 9.93842 30.9466 9.99948H31.0112L31.1726 9.42018H31.108C31.0433 9.38966 31.0112 9.35913 31.0112 9.29829V9.26777C31.0112 9.23725 31.0112 9.20672 31.0435 9.1764C31.0759 9.14588 31.1403 9.11535 31.1726 9.08503L30.8819 8.44464ZM31.7215 7.46911C31.6247 7.65204 31.4954 7.83498 31.3663 7.98741L31.8505 8.38379C31.9796 8.23138 32.0766 8.10949 32.1733 7.92656C32.2057 7.89604 32.2057 7.86551 32.238 7.83519L31.7215 7.46911ZM32.0766 6.2496C32.0766 6.46306 32.0119 6.67651 31.9798 6.88976L32.5933 7.04217C32.6256 6.92028 32.6579 6.82872 32.6901 6.70683C32.6901 6.61546 32.7224 6.5239 32.7224 6.43252L32.0766 6.2496ZM32.4961 4.78613L31.8827 4.99958C31.9473 5.21303 32.0118 5.39597 32.0441 5.60943L32.6899 5.51806V5.48754V5.45702V5.4265C32.5285 4.8775 32.5285 4.8472 32.4962 4.78614L32.4961 4.78613ZM31.6568 3.50561L31.1726 3.93252C31.334 4.08493 31.4631 4.26786 31.5924 4.45082L32.1413 4.11547C32.0766 3.99358 31.9799 3.8715 31.8829 3.78013C31.8829 3.78013 31.8829 3.74961 31.8506 3.74961V3.71908C31.6892 3.53615 31.6892 3.53615 31.6569 3.50563C31.6892 3.53615 31.6892 3.53615 31.6569 3.50563C31.6892 3.53615 31.6892 3.53615 31.6569 3.50563C31.6892 3.53615 31.6892 3.53615 31.6569 3.50563C31.6892 3.53615 31.6892 3.53615 31.6569 3.50563C31.6892 3.53615 31.6892 3.53615 31.6569 3.50563C31.6892 3.53615 31.6569 3.50563 31.6569 3.50563L31.6568 3.50561ZM30.3331 2.65199L30.075 3.20079C30.2687 3.29215 30.4947 3.38372 30.6561 3.50561L31.0112 3.01785C30.8175 2.89596 30.6238 2.77387 30.4301 2.68251H30.3978C30.3654 2.65198 30.3654 2.65199 30.3331 2.65199L30.3331 2.65199ZM28.8157 2.34717V2.95702C29.0417 2.95702 29.2354 2.98754 29.4615 3.01807L29.5906 2.40821C29.4292 2.37769 29.2355 2.34717 29.0417 2.34717H29.0094H28.8157C28.848 2.34717 28.848 2.34717 28.8157 2.34717C28.848 2.34717 28.848 2.34717 28.8157 2.34717C28.848 2.34717 28.848 2.34717 28.8157 2.34717C28.848 2.34717 28.848 2.34717 28.8157 2.34717C28.848 2.34717 28.848 2.34717 28.8157 2.34717C28.848 2.34717 28.848 2.34717 28.8157 2.34717H28.8157Z" fill="black"/>
<path d="M7.70131 2.34726C7.70131 2.34726 7.66899 2.34726 7.70131 2.34726C7.66899 2.34726 7.66899 2.34726 7.70131 2.34726C7.66899 2.34726 7.66899 2.34726 7.70131 2.34726C7.66899 2.34726 7.66899 2.34726 7.70131 2.34726C7.66899 2.34726 7.66899 2.34726 7.70131 2.34726C7.66899 2.34726 7.66899 2.34726 7.70131 2.34726H7.66899H7.63666C7.53991 2.34726 7.47526 2.37778 7.3783 2.37778L7.50738 2.98763C7.73342 2.95711 7.95946 2.92659 8.18529 2.92659L8.18549 2.34729L7.70131 2.34726ZM6.15152 2.65208C5.9578 2.74345 5.7964 2.80449 5.635 2.92638C5.635 2.92638 5.60268 2.92638 5.60268 2.95691C5.60268 2.95691 5.57036 2.95691 5.57036 2.98743H5.53804H5.50571L5.89316 3.47518C6.08688 3.35329 6.2806 3.23121 6.47432 3.17036L6.15152 2.65208ZM4.82801 3.53621C4.73125 3.62758 4.66661 3.71914 4.56964 3.81051V3.84103C4.505 3.90208 4.47289 3.99345 4.40824 4.05449L4.9571 4.35931C5.08618 4.17638 5.21547 3.99344 5.37687 3.84101L4.82801 3.53621ZM4.02079 4.81672C4.02079 4.84724 3.98847 4.84724 4.02079 4.81672C3.98847 4.84724 3.98847 4.84724 4.02079 4.81672C3.98847 4.84724 3.98847 4.84724 4.02079 4.81672C3.98847 4.84724 3.98847 4.84724 4.02079 4.81672C3.98847 4.84724 3.98847 4.84724 4.02079 4.81672C3.98847 4.84724 3.98847 4.84724 4.02079 4.81672C3.98847 4.84724 3.98847 4.84724 4.02079 4.81672C3.98847 4.84724 3.98847 4.84724 4.02079 4.81672C3.98847 4.84724 3.98847 4.84724 4.02079 4.81672C3.98847 4.84724 3.98847 4.84724 4.02079 4.81672C3.98847 4.84724 3.98847 4.84724 4.02079 4.81672C3.98847 4.84724 3.98847 4.84724 4.02079 4.81672C3.98847 4.84724 3.98847 4.84724 4.02079 4.81672C3.98847 4.84724 3.98847 4.84724 4.02079 4.81672C3.98847 4.84724 3.98847 4.84724 4.02079 4.81672C4.02079 4.84724 4.02079 4.84724 3.98847 4.87776C3.92382 5.09122 3.85939 5.30467 3.82706 5.54847L4.47288 5.63984C4.50521 5.42639 4.56964 5.21293 4.63429 5.02999L4.02079 4.81672ZM4.44055 6.28L3.79474 6.34104C3.82706 6.58502 3.85938 6.85934 3.92381 7.10331L4.53728 6.92038C4.50496 6.70692 4.47263 6.49347 4.44052 6.28002L4.44055 6.28ZM4.828 7.4997L4.24684 7.77401C4.37591 7.98746 4.53732 8.20091 4.69892 8.41416L5.18312 8.01777C5.05383 7.86536 4.92475 7.68243 4.828 7.49968V7.4997ZM5.66731 8.47524L5.27986 8.963C5.31219 8.99352 5.34451 9.02404 5.37662 9.02404C5.44127 9.08509 5.47338 9.17645 5.44127 9.26802C5.44127 9.29854 5.40894 9.32906 5.37662 9.35938C5.3443 9.35938 5.31197 9.38991 5.27986 9.38991L5.44127 9.96921L5.53802 9.93869C5.86082 9.84732 6.08688 9.63386 6.15149 9.32883C6.21613 9.02401 6.08684 8.68868 5.79637 8.53626C5.79637 8.53626 5.73193 8.50574 5.66729 8.47522L5.66731 8.47524ZM4.56964 9.69474C4.47288 9.72527 4.37592 9.78611 4.27916 9.81663H4.24684H4.21452C4.18219 9.81663 4.18219 9.84716 4.14987 9.84716C4.11755 9.84716 4.11755 9.87768 4.08522 9.87768H4.0529L4.3757 10.396C4.56942 10.2741 4.79547 10.1825 5.02152 10.0912L4.56964 9.69474ZM3.18126 10.4873C3.0845 10.5484 3.01985 10.6092 2.92289 10.7008L2.72917 10.8837L3.21337 11.2801C3.37477 11.1277 3.53617 10.9447 3.72989 10.8229L3.18126 10.4873ZM2.08359 11.6154C1.95451 11.8289 1.79311 12.0118 1.66382 12.2556L2.24498 12.5299C2.37427 12.3471 2.50335 12.1337 2.63243 11.9508L2.08359 11.6154ZM1.34102 12.9568C1.27638 13.1092 1.21194 13.2616 1.1473 13.4445C1.1473 13.4751 1.11498 13.5056 1.11498 13.5359L1.72845 13.7188C1.79309 13.4749 1.88985 13.2616 1.98681 13.0481L1.34102 12.9568ZM0.889145 14.4203C0.856824 14.4508 0.856824 14.4508 0.889145 14.4203V14.4508V14.4813C0.856824 14.5727 0.856824 14.6642 0.8245 14.7556C0.8245 14.8166 0.792179 14.908 0.792179 14.9691L1.438 15.0604C1.47032 14.8164 1.53475 14.5727 1.56708 14.3592L0.889145 14.4203ZM0.630781 15.9142C0.630781 15.9753 0.630781 16.0361 0.598459 16.1277L0.533813 16.6765L1.17963 16.7375L1.24428 16.1887C1.24428 16.1277 1.24428 16.0668 1.2766 16.0058L0.630781 15.9142ZM0.921468 16.7982V17.0116L0.727749 17.347C0.760071 17.3775 0.824505 17.3775 0.889151 17.3775H1.11519C1.24427 17.4385 1.37335 17.4385 1.50243 17.4385L1.56707 16.8287C1.30871 16.8287 1.08288 16.7982 0.921468 16.7982V16.7982ZM2.37429 16.8897L2.30965 17.4996C2.50337 17.4996 2.72942 17.5301 2.92311 17.5301H3.08452L3.11684 16.9202C2.89079 16.9508 2.60031 16.9202 2.37427 16.8897H2.37429ZM3.95617 17.0116L3.92385 17.6215H4.14989H4.44037H4.60177L4.63409 17.0116C4.47269 17.0421 4.21453 17.0116 3.95619 17.0116H3.95617ZM5.57061 17.0727L5.53829 17.6825H5.95805H6.31318V17.0727C6.08713 17.1032 5.82877 17.0727 5.57061 17.0727H5.57061ZM7.15248 17.1032V17.713H7.44296H7.47529H7.57204H7.60436H7.63669V17.6825V17.652V17.1642V17.652V17.1642C7.60457 17.1032 7.37853 17.1032 7.15249 17.1032L7.15248 17.1032ZM7.44296 15.9751C7.37832 16.2191 7.34621 16.4934 7.31389 16.7373L7.9597 16.8287C7.99203 16.5847 8.05646 16.3104 8.08878 16.0665L7.44296 15.9751ZM7.83041 14.4508C7.76576 14.6947 7.70133 14.969 7.63669 15.213L8.25015 15.3654C8.3148 15.1215 8.37923 14.9082 8.44387 14.6947L7.83041 14.4508ZM8.37927 12.9264C8.28251 13.1704 8.18555 13.4142 8.08879 13.6887L8.70225 13.8716C8.70225 13.8411 8.73457 13.7802 8.73457 13.7497V13.7192C8.73457 13.6887 8.73457 13.6887 8.7669 13.6582C8.79922 13.5668 8.83154 13.5057 8.86365 13.4142L8.37927 12.9264ZM9.15413 11.4935C9.02506 11.7069 8.86365 11.9507 8.73437 12.1947L9.31553 12.469C9.31553 12.469 9.31553 12.4385 9.34785 12.4385L9.15413 11.4935ZM10.1551 10.1824C9.96134 10.3959 9.76762 10.6093 9.6062 10.8226L10.1227 11.1885C10.1227 11.1579 10.155 11.1579 10.155 11.1274L10.1874 11.0969C10.1874 11.0969 10.1874 11.0664 10.2197 11.0664C10.252 11.0053 10.3164 10.975 10.3488 10.914L10.1551 10.1824ZM10.833 9.66413L10.6069 10.2434C10.7037 10.274 10.8006 10.3045 10.8974 10.3653L11.3816 9.90809C11.1881 9.81653 11.0267 9.72516 10.833 9.66411L10.833 9.66413ZM9.83226 8.41413C9.76761 8.47517 9.70318 8.50549 9.63854 8.56654C9.34806 8.74947 9.21877 9.08483 9.28342 9.42016C9.34806 9.72498 9.5739 9.96896 9.89688 10.03H9.9292L10.0906 9.45072H10.0583C9.99363 9.42019 9.96152 9.38967 9.96152 9.32882V9.2983C9.99385 9.26778 10.0262 9.26778 10.0262 9.23726C10.0585 9.20674 10.1229 9.17621 10.1552 9.14589L9.83226 8.41413ZM10.6393 7.40809C10.5425 7.59102 10.4132 7.77396 10.2841 7.95689L10.8007 8.32275C10.8653 8.26171 10.9297 8.17034 10.9621 8.1093C11.0267 7.98741 11.1235 7.86532 11.1881 7.74343L10.6393 7.40809ZM10.9944 6.18858C10.9944 6.40204 10.9621 6.61549 10.8976 6.82874L11.5111 6.98115C11.5757 6.7677 11.6078 6.55424 11.6078 6.31044L10.9944 6.18858ZM11.3818 4.7251L10.7686 4.93856C10.8332 5.12149 10.8977 5.33495 10.93 5.54841L11.5758 5.45704C11.5433 5.21307 11.4788 4.96909 11.3819 4.72513L11.3818 4.7251ZM10.5102 3.44479L10.0581 3.8717C10.2195 4.02411 10.3486 4.17652 10.4778 4.35946L11.0267 4.02411C10.9621 3.93275 10.8976 3.84118 10.833 3.74981C10.833 3.74981 10.833 3.71929 10.8007 3.71929L10.7683 3.68877C10.5748 3.53616 10.5425 3.50564 10.5102 3.44479L10.5102 3.44479ZM9.15413 2.62147L8.92809 3.20077C9.12181 3.29214 9.34786 3.3837 9.50926 3.50559L9.86438 2.9873C9.86438 2.9873 9.83205 2.9873 9.83205 2.95678C9.83205 2.95678 9.79973 2.95678 9.79973 2.92626C9.70298 2.86521 9.63833 2.83489 9.54137 2.80436C9.54137 2.80436 9.50905 2.80436 9.50905 2.77384C9.50905 2.77384 9.47673 2.77384 9.47673 2.74332H9.4444H9.41208C9.21878 2.62143 9.18645 2.62143 9.15413 2.62143L9.15413 2.62147ZM7.70131 2.34717V2.95702C7.89503 2.95702 8.08875 2.98754 8.28247 3.01807L8.37923 2.40821C8.21782 2.37769 8.05643 2.37769 7.89503 2.34717H7.86271H7.7013C7.73363 2.34717 7.73363 2.34717 7.7013 2.34717C7.73363 2.34717 7.73363 2.34717 7.7013 2.34717C7.73363 2.34717 7.73363 2.34717 7.7013 2.34717C7.73363 2.34717 7.73363 2.34717 7.7013 2.34717C7.73363 2.34717 7.73363 2.34717 7.7013 2.34717C7.73363 2.34717 7.73363 2.34717 7.7013 2.34717C7.73363 2.34717 7.73363 2.34717 7.7013 2.34717C7.73363 2.34717 7.73363 2.34717 7.7013 2.34717C7.73363 2.34717 7.73363 2.34717 7.7013 2.34717C7.73363 2.34717 7.73363 2.34717 7.7013 2.34717C7.73363 2.34717 7.73363 2.34717 7.7013 2.34717C7.73363 2.34717 7.73363 2.34717 7.7013 2.34717C7.73363 2.34717 7.73363 2.34717 7.7013 2.34717C7.73363 2.34717 7.73363 2.34717 7.7013 2.34717C7.73363 2.34717 7.73363 2.34717 7.7013 2.34717H7.70131Z" fill="black"/>
<path d="M27.4923 17.9267C26.9434 12.5609 24.5867 10.0611 21.2288 9.23765C21.035 9.1766 21.0027 8.90231 21.1641 8.78042C22.4878 7.89629 23.3595 6.46331 23.3595 4.81712C23.3595 2.16469 21.0672 0 18.2583 0C15.4494 0 13.1571 2.16469 13.1571 4.81712C13.1571 6.40246 13.9964 7.83543 15.2557 8.68906C15.4494 8.81095 15.4494 9.14629 15.2234 9.20735C11.9303 9.99992 9.60587 12.4086 8.99219 17.8964L8.89544 18.811C8.89544 18.811 8.83079 19.5733 9.54126 19.6036C12.6083 19.7255 15.5141 20 18.129 20C22.4877 20 25.8453 19.6647 27.1363 19.6036C27.7498 19.5731 27.6528 18.8413 27.6528 18.8413L27.4923 17.9267ZM14.7398 4.84757C14.7398 3.01826 16.3217 1.52443 18.2589 1.52443C20.1962 1.52443 21.778 3.01821 21.778 4.84757C21.778 6.67693 20.1962 8.17071 18.2589 8.17071C16.3219 8.17071 14.7398 6.67673 14.7398 4.84757ZM14.5138 18.2617C14.7398 16.6764 14.9335 15.8228 14.9012 16.097C14.9335 15.8836 14.8045 15.7007 14.5784 15.6398C14.3524 15.6093 14.1586 15.7312 14.0942 15.9446C13.9651 16.5545 13.8359 17.3166 13.6744 18.2312C13.6421 18.4446 13.4484 18.6276 13.1902 18.6276C12.4154 18.5665 11.6405 18.5362 10.8658 18.4752C10.5107 18.4446 10.6074 18.0788 10.6074 18.0788C11.2209 15.1215 11.7698 13.1092 13.1902 11.9201C14.3526 10.9141 15.9668 10.4567 18.2591 10.4567C20.4868 10.4567 22.1656 10.975 23.3603 12.0115C24.7487 13.231 25.3619 15.3346 25.9108 18.109C25.9108 18.109 26.0076 18.4749 25.6203 18.5054C24.9745 18.5665 24.1675 18.6273 23.2312 18.6578C23.0052 18.6578 22.8761 18.4138 22.8438 18.292C22.747 17.6518 22.6177 17.0725 22.3917 16.0359C22.3594 15.8225 22.1333 15.7006 21.9075 15.7311C21.6815 15.7616 21.5524 15.9751 21.5847 16.1883C21.52 15.8835 21.6815 16.7982 21.9075 18.353C21.9398 18.4749 21.8752 18.7494 21.5847 18.7494C19.6475 18.8104 17.323 18.8408 14.8051 18.7494C14.514 18.658 14.514 18.3835 14.514 18.2616L14.5138 18.2617Z" fill="black"/>
</svg>
