<svg width="33" height="24" viewBox="0 0 33 24" fill="none" xmlns="http://www.w3.org/2000/svg">
<g filter="url(#filter0_i_3268_22206)">
<path fill-rule="evenodd" clip-rule="evenodd" d="M25.0399 0.000232866C22.9933 0.000232866 21.1402 0.174119 19.7675 0.456591C19.0813 0.597733 18.5174 0.765799 18.0807 0.978053C17.8624 1.08427 17.67 1.20032 17.5103 1.36111C17.3842 1.48789 17.2838 1.65559 17.2414 1.85822C17.2404 1.86368 17.2343 1.86913 17.2333 1.87459C17.2223 1.91715 17.2169 1.96081 17.2171 2.00482C17.2169 2.01283 17.2171 2.02119 17.2171 2.0292C17.2167 2.04011 17.2167 2.05102 17.2171 2.06175C17.2167 2.07267 17.2167 2.08358 17.2171 2.09449L19.7513 21.2437C19.7531 21.26 19.7559 21.2764 19.7593 21.2924C19.8084 21.6685 20.0858 21.9301 20.3705 22.1073C20.684 22.3024 21.0727 22.4419 21.5356 22.5636C22.4614 22.8072 23.6859 22.9467 25.0395 22.9467C26.392 22.9467 27.618 22.8072 28.5434 22.5636C29.0061 22.4419 29.387 22.3024 29.7006 22.1073C29.9976 21.9225 30.2901 21.6467 30.3199 21.2435L30.3281 21.1945V21.1783L32.8378 2.23267V2.22448C32.8482 2.18228 32.8503 2.13882 32.8542 2.09407C32.8582 2.07261 32.8609 2.05096 32.8623 2.02914C32.8622 1.99912 32.8594 1.96911 32.8542 1.93946C32.8522 1.92309 32.8494 1.90672 32.846 1.89054C32.8092 1.67445 32.6934 1.4942 32.5608 1.36088C32.4011 1.20027 32.2086 1.08404 31.9904 0.97782C31.5538 0.765375 30.9898 0.597491 30.3035 0.456358C28.9313 0.173886 27.0852 0.000232866 25.0399 0.000232866ZM25.0399 1.04316C27.0272 1.04316 28.8224 1.21377 30.092 1.47496C30.7268 1.60555 31.2322 1.76798 31.5344 1.91494C31.6193 1.95623 31.6886 1.99498 31.7381 2.02899C31.6886 2.06318 31.6195 2.10156 31.5344 2.14303C31.2325 2.29018 30.7268 2.45224 30.092 2.58302C28.8226 2.84457 27.0272 3.00682 25.0399 3.00682C23.0511 3.00682 21.2494 2.84475 19.9794 2.58302C19.3444 2.45224 18.8391 2.29017 18.537 2.14303C18.4519 2.10156 18.3828 2.06318 18.3333 2.02899C18.3829 1.99479 18.4521 1.95623 18.537 1.91494C18.8391 1.76798 19.3444 1.60555 19.9794 1.47496C21.2493 1.21358 23.0509 1.04316 25.0399 1.04316ZM18.4232 3.22688C18.8007 3.37185 19.2483 3.49462 19.7678 3.60176C21.1403 3.88459 22.9932 4.04993 25.0401 4.04993C27.0855 4.04993 28.9318 3.88459 30.3041 3.60176C30.8236 3.4948 31.2712 3.37185 31.6486 3.22688L29.2937 21.0639C29.2906 21.0746 29.2877 21.0857 29.2854 21.0966V21.1048V21.121C29.2795 21.1236 29.2533 21.1576 29.1549 21.2189C28.9861 21.3238 28.6746 21.456 28.275 21.5612C27.4758 21.7714 26.3184 21.9035 25.0399 21.9035C23.7603 21.9035 22.5963 21.7714 21.7969 21.5612C21.3971 21.456 21.0857 21.324 20.9169 21.2189C20.822 21.1597 20.7936 21.1254 20.7865 21.121C20.7867 21.1155 20.7867 21.1101 20.7865 21.1048V21.0721C20.7821 21.0528 20.7767 21.0339 20.7701 21.0151L18.4232 3.22688Z" fill="#979797"/>
<path fill-rule="evenodd" clip-rule="evenodd" d="M30.0244 5.13374C29.7569 5.12937 29.5293 5.32818 29.4978 5.59409L29.1228 8.42845C29.1024 8.56669 29.1382 8.70728 29.2224 8.81878C29.3065 8.93009 29.4318 9.00321 29.5704 9.02159C29.7088 9.03996 29.8489 9.00194 29.9591 8.91609C30.0691 8.83043 30.1404 8.70401 30.1566 8.56523L30.5317 5.73087C30.5535 5.58245 30.5104 5.43185 30.4133 5.31762C30.3161 5.20322 30.1745 5.13628 30.0244 5.13374H30.0244Z" fill="#979797"/>
<path fill-rule="evenodd" clip-rule="evenodd" d="M29.414 9.73603C29.1464 9.73167 28.9189 9.93065 28.8876 10.1964L28.1245 15.9693H28.1244C28.1047 16.1072 28.1409 16.2472 28.2251 16.3584C28.3092 16.4693 28.4343 16.5421 28.5724 16.5603C28.7104 16.5786 28.8501 16.5408 28.9601 16.4555C29.0704 16.3702 29.1417 16.2443 29.1584 16.1061L29.9214 10.3332C29.9433 10.1847 29.9 10.0341 29.8028 9.91974C29.7057 9.80551 29.564 9.73858 29.414 9.73603Z" fill="#979797"/>
<path d="M3.60321 23.9684C2.81308 23.9684 2.15719 23.2099 2.15719 22.2749L2.77615 10.1405C1.40128 9.71903 0 8.281 0 5.97361C0.00272833 3.29496 1.98858 0 3.60321 0C5.21784 0 7.20898 3.2951 7.20898 5.97081C7.20898 8.27807 5.8077 9.71352 4.43283 10.1377L5.04923 22.2534C5.05451 23.2042 4.40135 23.9681 3.60321 23.9681V23.9684ZM3.60321 0.52705C2.39163 0.526868 0.529472 3.44797 0.529472 5.97123C0.529472 8.10988 1.86742 9.39526 3.11066 9.68228V9.68246C3.23216 9.71102 3.31692 9.82106 3.31347 9.94583L2.68393 22.2856C2.68393 22.9151 3.09754 23.442 3.60318 23.442C4.109 23.442 4.5277 22.9151 4.5277 22.2725L3.89565 9.95137C3.89219 9.8266 3.97695 9.71656 4.09846 9.688C5.34165 9.40098 6.67965 8.10774 6.67965 5.97695C6.68219 3.44833 4.82 0.527185 3.60321 0.527185V0.52705Z" fill="#979797"/>
<path d="M11.7311 24C10.941 24 10.2851 23.2415 10.2851 22.3064L10.9199 9.87167C10.1674 9.71215 9.49064 9.30402 8.99861 8.71285C8.50643 8.12191 8.22757 7.38235 8.20703 6.6135L8.4704 0.329312C8.4704 0.183802 8.58826 0.0657548 8.73377 0.0657548L9.80054 0.0604801C9.87057 0.0572061 9.93859 0.0841255 9.98752 0.134325C10.0377 0.183617 10.0663 0.250915 10.0665 0.321304L10.135 6.16081C10.1463 6.3276 10.2895 6.45438 10.4564 6.44528C10.5401 6.44455 10.6203 6.41163 10.6801 6.35306C10.7358 6.30159 10.7665 6.22865 10.7645 6.15299L10.6934 0.313482C10.6934 0.167971 10.8113 0.0501104 10.9568 0.0501104L12.4344 0.0315578C12.5043 0.0315578 12.5712 0.0593868 12.6207 0.108676C12.67 0.158149 12.6978 0.225084 12.6978 0.294929L12.7664 6.13164L12.7662 6.13182C12.7704 6.21222 12.8062 6.28752 12.8661 6.34154C12.9259 6.39537 13.0047 6.4232 13.0849 6.41884C13.2522 6.42193 13.3912 6.29097 13.3984 6.12382L13.3299 0.279196C13.3299 0.133867 13.4477 0.0158243 13.5932 0.0158243L14.6653 2.28139e-07C14.8048 -0.000181648 14.9203 0.108404 14.9286 0.247731L15.3317 6.51608C15.3275 7.31311 15.0481 8.08434 14.5409 8.69911C14.0336 9.31407 13.3295 9.73459 12.5475 9.89011L13.1771 22.2932C13.1771 23.2388 12.5292 24 11.7311 24L11.7311 24ZM8.97882 0.600497L8.73382 6.6216C8.75946 7.30515 9.02466 7.95773 9.48302 8.46541C9.94156 8.97286 10.564 9.30299 11.2413 9.39775C11.369 9.41976 11.4618 9.53144 11.46 9.66112L10.8121 22.304C10.8121 22.9335 11.2255 23.4577 11.7313 23.4577C12.237 23.4577 12.6506 22.931 12.6506 22.2909L12.0104 9.68477C12.0089 9.55345 12.1044 9.44122 12.2343 9.4214C12.9393 9.33228 13.5882 8.99087 14.0608 8.4601C14.5335 7.92937 14.7978 7.24527 14.8049 6.53462L14.4178 0.542386H13.8594L13.9253 6.11555V6.11573C13.9285 6.41675 13.7709 6.69684 13.5118 6.85017C13.2527 7.00369 12.9314 7.00714 12.669 6.85945C12.4065 6.71176 12.2428 6.43529 12.2395 6.13409L12.1711 0.560924H11.2202L11.2861 6.13688C11.2895 6.35605 11.2018 6.56686 11.0438 6.71892C10.8868 6.8728 10.6762 6.95956 10.4565 6.96119C10.2358 6.96902 10.0216 6.88808 9.86117 6.73674C9.70074 6.58523 9.6078 6.37588 9.60306 6.15526L9.53722 0.592811L8.97882 0.600497Z" fill="#979797"/>
</g>
<defs>
<filter id="filter0_i_3268_22206" x="0" y="0" width="32.8623" height="28" filterUnits="userSpaceOnUse" color-interpolation-filters="sRGB">
<feFlood flood-opacity="0" result="BackgroundImageFix"/>
<feBlend mode="normal" in="SourceGraphic" in2="BackgroundImageFix" result="shape"/>
<feColorMatrix in="SourceAlpha" type="matrix" values="0 0 0 0 0 0 0 0 0 0 0 0 0 0 0 0 0 0 127 0" result="hardAlpha"/>
<feOffset dy="4"/>
<feGaussianBlur stdDeviation="2"/>
<feComposite in2="hardAlpha" operator="arithmetic" k2="-1" k3="1"/>
<feColorMatrix type="matrix" values="0 0 0 0 0 0 0 0 0 0 0 0 0 0 0 0 0 0 0.25 0"/>
<feBlend mode="normal" in2="shape" result="effect1_innerShadow_3268_22206"/>
</filter>
</defs>
</svg>
