<svg width="24" height="27" viewBox="0 0 24 27" fill="none" xmlns="http://www.w3.org/2000/svg">
<path d="M23.6892 2.9042C24.1036 10.1179 24.1036 17.1774 23.6892 24.4291C23.6202 25.5418 22.6878 26.5394 21.6862 26.6546C15.1939 27.1151 8.84032 27.1151 2.31378 26.6546C1.31242 26.578 0.414554 25.542 0.310819 24.4291C-0.103606 17.2154 -0.103606 10.1559 0.310819 2.9042C0.379831 1.79157 1.31218 0.793951 2.31378 0.67869C8.8061 0.218218 15.1597 0.218218 21.6862 0.67869C22.7221 0.755569 23.6199 1.75319 23.6892 2.9042ZM1.72685 24.5062C1.76135 24.8131 1.96857 25.0434 2.24478 25.0817C8.80601 25.5038 15.2632 25.5038 21.8244 25.0817C22.0661 25.0434 22.3078 24.8131 22.3078 24.5445C22.6878 17.2543 22.6878 10.0797 22.3078 2.7894C22.2733 2.52083 22.0661 2.25226 21.8244 2.25226C15.2632 1.83013 8.80601 1.83013 2.24478 2.25226C2.00306 2.2906 1.76135 2.52084 1.76135 2.7894C1.3471 10.0791 1.3471 17.2163 1.72684 24.506L1.72685 24.5062Z" fill="#979797"/>
<path d="M14.8828 11.2691C13.8815 11.2691 13.0181 11.9982 12.7074 12.9958H5.45564C5.04121 12.9958 4.73047 13.341 4.73047 13.8015C4.73047 14.2237 5.0412 14.6073 5.45564 14.6073H12.7074C13.0181 15.6049 13.847 16.334 14.8483 16.334C15.8497 16.334 16.713 15.6049 17.0238 14.6073H18.5778C18.9922 14.6073 19.303 14.262 19.303 13.8015C19.303 13.3794 18.9923 12.9958 18.5778 12.9958H17.0238C16.7476 12.0365 15.8842 11.2691 14.8828 11.2691ZM16.2641 13.0341C16.2986 13.0725 16.2986 13.1491 16.3331 13.1877V13.226C16.3331 13.2644 16.3676 13.341 16.3676 13.3796V13.4179C16.3676 13.4563 16.4021 13.4946 16.4021 13.5715V13.6098V13.8017V13.9936V14.032C16.4021 14.0703 16.4021 14.1086 16.3676 14.1855V14.2239C16.3676 14.2622 16.3331 14.3389 16.3331 14.3774V14.4158C16.2986 14.4924 16.2986 14.5308 16.2641 14.5693C15.9879 15.1065 15.4699 15.4903 14.8828 15.4903C14.2959 15.4903 13.7777 15.1067 13.5015 14.5693C13.467 14.531 13.467 14.4543 13.4325 14.4158V14.3774C13.4325 14.3391 13.398 14.2624 13.398 14.2239V14.1855C13.398 14.1472 13.3635 14.1088 13.3635 14.032V13.9936V13.8017V13.6098V13.5715C13.3635 13.5331 13.3635 13.4565 13.398 13.4179V13.3796C13.398 13.3412 13.4325 13.2646 13.4325 13.226V13.1877C13.467 13.111 13.467 13.0727 13.5015 13.0341C13.7778 12.497 14.2612 12.1132 14.8828 12.1132C15.4699 12.0748 15.9879 12.4584 16.2641 13.0341Z" fill="#979797"/>
<path d="M11.2226 4.70806C10.2213 4.70806 9.3924 5.43713 9.08166 6.47309C7.66587 6.51143 6.9752 6.51143 5.5594 6.54977C5.17948 6.54977 4.83423 6.93336 4.83423 7.35552C4.83423 7.77767 5.14496 8.12293 5.5249 8.12293C6.94069 8.08459 7.66587 8.08459 9.08166 8.04625C9.35789 9.04387 10.2213 9.77295 11.2226 9.77295C12.224 9.77295 13.0874 9.04387 13.3636 8.04625C15.4356 8.04625 16.4714 8.08459 18.5434 8.12293C18.9233 8.12293 19.2341 7.77767 19.2341 7.35552C19.2341 6.93336 18.8888 6.54977 18.5089 6.54977C16.4369 6.47309 15.4356 6.47309 13.3638 6.43475C13.0529 5.43713 12.1897 4.70805 11.2228 4.70805L11.2226 4.70806ZM12.5692 6.43455C12.6037 6.47289 12.6037 6.54957 12.6382 6.58811V6.62645C12.6382 6.66479 12.6728 6.74147 12.6728 6.78001V6.81835C12.6728 6.85669 12.7073 6.89503 12.7073 6.97191V7.01025V7.20215V7.39404V7.43238C12.7073 7.47072 12.7073 7.5474 12.6728 7.58594V7.62428C12.6728 7.66262 12.6382 7.7393 12.6382 7.77784V7.81618C12.6037 7.89286 12.6037 7.9312 12.5692 7.96974C12.3275 8.50689 11.8096 8.8907 11.1879 8.8907C10.601 8.8907 10.0828 8.5071 9.84115 7.96974C9.80664 7.9314 9.80664 7.85472 9.77214 7.81618V7.77784C9.77214 7.7395 9.73763 7.66282 9.73763 7.62428V7.58594C9.73763 7.5476 9.73763 7.50926 9.70313 7.43238V7.39404V7.20215V7.01025V6.97191C9.70313 6.93357 9.70313 6.85689 9.73763 6.81835V6.78001C9.73763 6.74167 9.77214 6.66499 9.77214 6.62645V6.58811C9.80664 6.51143 9.80664 6.47309 9.84115 6.39621C10.1174 5.85906 10.6008 5.47526 11.1879 5.47526C11.8096 5.5138 12.3275 5.89739 12.5692 6.43455V6.43455Z" fill="#979797"/>
<path d="M8.90929 17.4849C7.90793 17.4849 7.04457 18.1756 6.76833 19.173C6.25039 19.173 6.00865 19.173 5.49072 19.1347C5.1108 19.1347 4.80005 19.48 4.80005 19.9021C4.80005 20.3242 5.14528 20.7079 5.52522 20.7079C6.04315 20.7079 6.28489 20.7462 6.80283 20.7462C7.11356 21.7438 7.97693 22.5112 8.94379 22.5112C9.94516 22.5112 10.774 21.8205 11.0503 20.7845C14.0201 20.7845 15.5049 20.7845 18.4403 20.6695C18.8202 20.6695 19.1654 20.2859 19.1654 19.8638C19.1654 19.4416 18.8547 19.0964 18.4748 19.0964C15.5049 19.173 14.0201 19.173 11.0159 19.173C10.7743 18.2523 9.91066 17.5233 8.90929 17.4849ZM10.2906 19.2497C10.3251 19.288 10.3251 19.3647 10.3596 19.4416V19.4799C10.3596 19.5183 10.3941 19.595 10.3941 19.6335V19.6718C10.3941 19.7102 10.4286 19.7485 10.4286 19.8254V19.8637V20.0556V20.2475V20.2859C10.4286 20.3242 10.4286 20.4009 10.3941 20.4394V20.4778C10.3941 20.5161 10.3596 20.5928 10.3596 20.6313V20.6697C10.3251 20.7464 10.3251 20.7847 10.2906 20.8232C10.0489 21.3604 9.53091 21.7442 8.94379 21.7442C8.35686 21.7442 7.83869 21.3606 7.5625 20.7849C7.52799 20.7466 7.52799 20.6699 7.49349 20.6313V20.593C7.49349 20.5547 7.45898 20.478 7.45898 20.4394V20.4011C7.45898 20.3628 7.42448 20.3244 7.42448 20.2475V20.2092V20.0173V19.8254V19.7871C7.42448 19.7487 7.42448 19.7104 7.45898 19.6335V19.5952C7.45898 19.5568 7.49349 19.4802 7.49349 19.4416V19.4033C7.52799 19.3266 7.52799 19.2883 7.5625 19.2497C7.80422 18.7126 8.32217 18.3288 8.90929 18.3288C9.53078 18.329 10.0489 18.6742 10.2906 19.2497Z" fill="#979797"/>
</svg>
