<svg width="24" height="25" viewBox="0 0 24 25" fill="none" xmlns="http://www.w3.org/2000/svg">
<path d="M8.36458 24.3329C8.00663 24.3361 7.65151 24.271 7.31801 24.1409C6.22592 23.709 5.39781 22.4969 5.44821 21.376C5.47215 20.656 5.14819 19.8904 4.90341 19.6552C4.65863 19.42 3.87608 19.1104 3.16318 19.1583C2.05197 19.2305 0.808663 18.448 0.345424 17.3729C-0.117687 16.2975 0.158242 14.8528 0.97912 14.0944C1.49996 13.6144 1.81439 12.8345 1.80955 12.4913C1.80469 12.1481 1.46633 11.3848 0.928716 10.912C0.0838874 10.1727 -0.240225 8.73263 0.189539 7.65501C0.619133 6.57735 1.83363 5.73494 2.95457 5.78534C3.67468 5.80928 4.4403 5.48533 4.6804 5.24057C4.92049 4.99582 5.22053 4.21331 5.17244 3.50046C5.09794 2.38448 5.88033 1.14379 6.96038 0.680542C8.04043 0.217292 9.47811 0.493373 10.2414 1.3142L10.2416 1.31403C10.6638 1.76288 11.2255 2.05551 11.8353 2.14457C12.1785 2.14457 12.9418 1.80137 13.4098 1.2638C14.161 0.416499 15.6012 0.0924081 16.6766 0.524501C17.7519 0.956422 18.5968 2.16848 18.5464 3.28935C18.5176 4.0094 18.8464 4.77497 19.0937 5.01506C19.341 5.25513 20.121 5.55515 20.829 5.50707C21.9499 5.43273 23.186 6.21508 23.6516 7.28785C24.1172 8.36063 23.8388 9.80541 23.0228 10.5687C22.4971 11.0486 22.1826 11.8335 22.1924 12.1718C22.2019 12.5101 22.5356 13.2782 23.0732 13.7461C23.918 14.4829 24.2396 15.9061 23.81 17.003L23.8098 17.0032C23.5843 17.5376 23.2122 17.9972 22.7365 18.3294C22.261 18.6614 21.7011 18.8522 21.1217 18.88H21.0448C20.3247 18.8512 19.5591 19.18 19.3239 19.4248C19.0886 19.6696 18.7837 20.4521 18.8318 21.1649C18.9062 22.2809 18.1117 23.5169 17.0461 23.9873C15.9804 24.4578 14.5283 24.1745 13.7698 23.3585C13.2898 22.8377 12.5192 22.5233 12.1712 22.5233C11.828 22.5233 11.0647 22.8665 10.5967 23.4041C10.0159 24.0129 9.20611 24.3499 8.36463 24.3329L8.36458 24.3329ZM3.31216 17.8262C4.2506 17.8262 5.29481 18.1815 5.82989 18.6974C6.40598 19.2542 6.81401 20.4278 6.78988 21.4214H6.79005C6.81064 21.7365 6.91679 22.0399 7.09694 22.299C7.27709 22.5582 7.52454 22.7634 7.8125 22.8927C8.11286 22.9993 8.43681 23.0208 8.74858 22.9546C9.06032 22.8885 9.34764 22.7375 9.57901 22.5184C10.2343 21.7695 11.3311 21.196 12.1329 21.1816C12.9345 21.1672 14.0531 21.7073 14.73 22.4368C15.1141 22.8497 15.9445 22.9936 16.5109 22.7512C17.0773 22.5088 17.5382 21.7913 17.4997 21.2368C17.4349 20.2481 17.8046 19.0625 18.3614 18.4864C18.9183 17.9103 20.0919 17.5023 21.0905 17.5264L21.1216 17.5263C21.5464 17.5058 21.9465 17.321 22.2373 17.0107C22.5283 16.7004 22.6868 16.2891 22.6798 15.864C22.6726 15.4388 22.5003 15.033 22.1993 14.7327C21.4504 14.0774 20.8768 12.9807 20.8624 12.1789C20.848 11.3774 21.3882 10.2589 22.1178 9.58202L22.1176 9.58219C22.3292 9.34329 22.471 9.05066 22.5273 8.7366C22.5837 8.42253 22.5524 8.09892 22.4369 7.80144C22.3001 7.51349 22.0866 7.26872 21.8199 7.09429C21.553 6.91985 21.2433 6.82241 20.9247 6.81253C19.9359 6.87732 18.7502 6.50767 18.174 5.94616C17.5979 5.38451 17.1899 4.21093 17.214 3.21732C17.1928 2.90191 17.0855 2.59824 16.904 2.33925C16.7225 2.08042 16.4737 1.876 16.1844 1.74845C15.884 1.64198 15.5601 1.62055 15.2483 1.68668C14.9366 1.75264 14.6491 1.90364 14.4177 2.12297C13.7601 2.87414 12.6632 3.45255 11.8616 3.45255H11.8352C11.0407 3.45255 9.93656 2.92454 9.26451 2.20213C9.02576 1.99018 8.73312 1.84838 8.41886 1.79197C8.10477 1.73571 7.78114 1.76719 7.48364 1.88287C6.92195 2.12294 6.45631 2.8428 6.49484 3.3973C6.55964 4.39091 6.18996 5.57164 5.63313 6.14774C5.07628 6.72379 3.90263 7.1318 2.90894 7.0958H2.87998C2.5689 7.12325 2.27105 7.23408 2.01758 7.41656C1.76426 7.59904 1.56471 7.8463 1.43994 8.13259C1.33329 8.43293 1.31186 8.75686 1.37799 9.0686C1.44413 9.38033 1.59514 9.66776 1.81432 9.89897C2.56322 10.5542 3.13679 11.651 3.15119 12.4574C3.16559 13.2638 2.62546 14.3774 1.90068 15.0543C1.68906 15.2922 1.54725 15.584 1.49083 15.8974C1.43457 16.2108 1.46588 16.5336 1.5814 16.8304C1.82149 17.3921 2.5414 17.8577 3.09593 17.8191C3.16776 17.8258 3.23992 17.8282 3.31208 17.8263L3.31216 17.8262ZM12.0009 17.4182C10.3074 17.4194 8.7244 16.5777 7.77842 15.173C6.83248 13.7683 6.64797 11.985 7.28604 10.4167C7.92411 8.848 9.30118 7.69988 10.959 7.35419C12.6168 7.00848 14.338 7.51055 15.5498 8.6935C16.7616 9.87629 17.3053 11.5847 16.9995 13.2506C16.694 14.9162 15.5794 16.3204 14.0266 16.9961L13.7649 16.3866L14.0266 16.9961C13.387 17.2732 12.6977 17.4168 12.0007 17.4185L12.0009 17.4182ZM12.0009 8.58867C11.4911 8.58833 10.9868 8.69364 10.52 8.89822C9.37816 9.39644 8.55947 10.4302 8.33647 11.6557C8.11329 12.8812 8.51511 14.1372 9.40799 15.0058C10.3009 15.8744 11.5676 16.2411 12.7864 15.9843C14.0053 15.7277 15.0164 14.8807 15.4828 13.7259C15.9493 12.571 15.8101 11.2596 15.1115 10.2284C14.4128 9.19711 13.2465 8.5815 12.0009 8.58638L12.0009 8.58867Z" fill="#979797"/>
</svg>
